<svg xmlns="http://www.w3.org/2000/svg" viewBox="0 0 783.98 267.88"><defs><style>.cls-1{fill:#fff;}</style></defs><title>accentlogo</title><g id="Layer_2" data-name="Layer 2"><g id="Layer_1-2" data-name="Layer 1"><path class="cls-1" d="M95.41,214.47A89.84,89.84,0,0,1,56.74,180l-37.09,13.2-.1-.18,31.9-22.58c-1.32-3.69-2.75-7.2-3.86-10.82a88.14,88.14,0,0,1-.67-50c.33-1.2.16-1.72-1-2.32q-19-9.91-38-19.93A2.11,2.11,0,0,1,7,86.6L51.29,97.29A90.09,90.09,0,0,1,86,57.54L70,22.07l.18-.12L95.58,52.22c3.62-1.32,7.09-2.75,10.66-3.85a88.33,88.33,0,0,1,54,.25,1.48,1.48,0,0,0,2.15-.86Q173,28.36,183.71,9a1.39,1.39,0,0,1,.59-.64L172.55,53.53a90.14,90.14,0,0,1,41.34,42.52l36.32-12.92.09.17c-.29.22-.58.44-.88.65Q234.1,94.8,218.77,105.64c-.58.41-.94.71-.68,1.57a89,89,0,0,1,.13,52.24c-.05.18-.09.37-.16.66L261,182.74l-.07.22c-1.18-.27-2.37-.53-3.54-.82Q236,177,214.61,171.81c-.88-.22-1.21,0-1.58.77a89.13,89.13,0,0,1-32.14,36.08c-.32.21-.64.43-1,.67l16,35.4-.13.1c-.19-.2-.39-.4-.57-.61q-12.07-14.38-24.12-28.78a1.36,1.36,0,0,0-1.93-.48,88.55,88.55,0,0,1-61.31,4.12,1.34,1.34,0,0,0-1.88.81q-10.91,20-21.88,39.89a2.28,2.28,0,0,1-.78.91Zm18.68-71.22c.22.37.45.73.65,1.11a21.35,21.35,0,0,0,24.57,10.74l2.62-.69-25,45.49c31.31,7.54,62.2-8.12,75.6-33.38l-50.33-12.15c10.43-6.76,15.52-15.53,11.59-28.13l45.34,23.91a67.93,67.93,0,0,0-2.78-41.8c-5.81-14.6-15.64-25.8-29.24-34l-13.44,51.57c-6.7-11-16-14.84-28.36-10.89l26-47.23C121.73,59,86.92,72.6,72.16,102.33L125,115.1a2.85,2.85,0,0,1-.25.23l-.92.51a22,22,0,0,0-10.56,13.5,22.24,22.24,0,0,0,.82,13.93c-.13-.08-.26-.18-.39-.25L67,118.47a6.06,6.06,0,0,0-.71-.27c-7.41,31.67,9.17,62.78,34.55,75.49.55-2.08,1.11-4.15,1.65-6.23Z"/><path class="cls-1" d="M185.4.92l-1.34,3.49-.42-.15c.19-.62.37-1.24.57-1.86s.37-1.2.62-1.77a2.73,2.73,0,0,1,.56-.64c.2.25.52.47.58.75a28.45,28.45,0,0,0,.77,3.14l1.15-3,.49.18a26.75,26.75,0,0,1-1.5,4c-.33.61-.74-.1-.83-.55C185.81,3.42,185.64,2.31,185.4.92Z"/><path class="cls-1" d="M.43,84.28l2-2.48.33.12-.26,3.16,2-2.44.32.27c-.73.92-1.46,1.84-2.21,2.75-.07.09-.37.13-.41.07A1,1,0,0,1,2,85.14,8.72,8.72,0,0,0,2,83L.23,85.28c-.52-1.6,0-2.89,0-4.18H.7Z"/><path class="cls-1" d="M83.15,264.41c-.18-.13-.35-.34-.55-.37a5.89,5.89,0,0,0-1.07,0,7.4,7.4,0,0,0,.18,1c.05.17.32.26.38.43a3.46,3.46,0,0,1,.42,1.65c-.08.33-.82.69-1.27.71a1.45,1.45,0,0,1-1.59-1.31,4.14,4.14,0,0,0,1.08.64,4.07,4.07,0,0,0,1.15-.11,4.22,4.22,0,0,0-.18-1c-.12-.27-.5-.43-.6-.69a2.28,2.28,0,0,1-.21-1.39,1.32,1.32,0,0,1,1.09-.64,4.63,4.63,0,0,1,1.45.69Z"/><path class="cls-1" d="M264.32,182.36l1.82.78-.09.26-1.41-.38-.4.9,1.08.68-.08.16-1.17-.28-.51,1,1.29.74-.11.24-1.82-.7Z"/><path class="cls-1" d="M274.35,146.49l-3.6,11.22h-3.66l13.74-41.1h4.5L299,157.71h-3.78l-3.6-11.22Zm8.7-26.94-7.68,23.88h15.3Z"/><path class="cls-1" d="M329.37,119.73l-1.92,2.4a12.4,12.4,0,0,0-8.4-3.12c-7.14,0-13.08,5-13.08,18.12,0,12.48,5.7,18.06,12.9,18.06,4.26,0,6.66-1.56,9.06-3.48l1.92,2.4a15.39,15.39,0,0,1-11.1,4.26c-9.48,0-16.56-7.38-16.56-21.24,0-14,7.5-21.18,16.62-21.18A14.91,14.91,0,0,1,329.37,119.73Z"/><path class="cls-1" d="M361.17,119.73l-1.92,2.4a12.4,12.4,0,0,0-8.4-3.12c-7.14,0-13.08,5-13.08,18.12,0,12.48,5.7,18.06,12.9,18.06,4.26,0,6.66-1.56,9.06-3.48l1.92,2.4a15.39,15.39,0,0,1-11.1,4.26c-9.48,0-16.56-7.38-16.56-21.24,0-14,7.5-21.18,16.62-21.18A14.91,14.91,0,0,1,361.17,119.73Z"/><path class="cls-1" d="M373.29,119.61v15.3h14.58v3H373.29v16.8H391v3h-21.3v-41.1h20.88l-.42,3Z"/><path class="cls-1" d="M422.73,157.71l-19.38-37.14c.18,2.82.48,6.78.48,14.16v23h-3.42v-41.1H405l19.5,37.14c-.12-1.74-.48-6.84-.48-12.18v-25h3.42v41.1Z"/><path class="cls-1" d="M450.75,119.79v37.92h-3.54V119.79H435v-3.18h28.2l-.42,3.18Z"/><path class="cls-1" d="M487.23,157.71v-41.1h3.6v41.1Z"/><path class="cls-1" d="M514.11,119.79v37.92h-3.54V119.79H498.39v-3.18h28.2l-.42,3.18Z"/><path class="cls-1" d="M571.77,120.51l-2.16,2.34a13.13,13.13,0,0,0-9.54-3.84c-5,0-8.52,2.64-8.52,7s2.22,6.12,9.6,8.34S573,139.23,573,146.49c0,7-5.34,11.88-13.62,11.88a18.18,18.18,0,0,1-13.14-5.16l2.16-2.34a14.94,14.94,0,0,0,10.92,4.44c5.76,0,10-3.18,10-8.7,0-5-2.46-7-9.78-9.3-8.16-2.52-11.7-5.34-11.7-11.28S552.75,116,559.95,116A16.14,16.14,0,0,1,571.77,120.51Z"/><path class="cls-1" d="M586.53,119.61v15.3h14.58v3H586.53v16.8h17.7v3h-21.3v-41.1h20.88l-.42,3Z"/><path class="cls-1" d="M617.25,139.29v18.42h-3.6v-41.1h10c9.9,0,14.64,3.9,14.64,11.16,0,6.12-3.36,9.36-9.18,10.86l11.28,19.08H636l-10.56-18.42Zm17.16-11.52c0-5.46-3.06-8.22-10.92-8.22h-6.24v16.8h6.84C630.63,136.35,634.41,133.77,634.41,127.77Z"/><path class="cls-1" d="M655.89,157.71l-13.44-41.1h3.9L657.93,154l11.64-37.38h3.72l-13.38,41.1Z"/><path class="cls-1" d="M680.91,157.71v-41.1h3.6v41.1Z"/><path class="cls-1" d="M722.31,119.73l-1.92,2.4A12.4,12.4,0,0,0,712,119c-7.14,0-13.08,5-13.08,18.12,0,12.48,5.7,18.06,12.9,18.06,4.26,0,6.66-1.56,9.06-3.48l1.92,2.4a15.39,15.39,0,0,1-11.1,4.26c-9.48,0-16.56-7.38-16.56-21.24,0-14,7.5-21.18,16.62-21.18A14.91,14.91,0,0,1,722.31,119.73Z"/><path class="cls-1" d="M734.43,119.61v15.3H749v3H734.43v16.8h17.7v3h-21.3v-41.1h20.88l-.42,3Z"/><path class="cls-1" d="M782.72,120.51l-2.16,2.34A13.13,13.13,0,0,0,771,119c-5,0-8.52,2.64-8.52,7s2.22,6.12,9.6,8.34S784,139.23,784,146.49c0,7-5.34,11.88-13.62,11.88a18.18,18.18,0,0,1-13.14-5.16l2.16-2.34a14.94,14.94,0,0,0,10.92,4.44c5.76,0,10-3.18,10-8.7,0-5-2.46-7-9.78-9.3-8.16-2.52-11.7-5.34-11.7-11.28S763.71,116,770.91,116A16.14,16.14,0,0,1,782.72,120.51Z"/></g></g></svg>