<?xml version="1.0" encoding="utf-8"?>
<!-- Generator: Adobe Illustrator 21.1.0, SVG Export Plug-In . SVG Version: 6.00 Build 0)  -->
<svg version="1.1" id="Layer_1" xmlns="http://www.w3.org/2000/svg" xmlns:xlink="http://www.w3.org/1999/xlink" x="0px" y="0px"
	 viewBox="0 0 2205.9 2203.6" style="enable-background:new 0 0 2205.9 2203.6;" xml:space="preserve">
<style type="text/css">
	.st0{fill:#FFFFFF;}
	.st1{fill:#333333;stroke:#FFFFFF;stroke-miterlimit:10;}
</style>
<title>accent-it-note</title>
<g>
	<circle class="st0" cx="1102.7" cy="1100.9" r="1102.7"/>
	<g id="Layer_2">
		<g id="Layer_1-2">
			<g id="Layer_2-2">
				<g id="Layer_1-2-2">
					<path class="st1" d="M233.4,1155.6l184.3,112.9c28.5,17.5,65.1-3.1,65.1-36.5v-225.8c0-33.4-36.6-54-65.1-36.5l-184.3,112.9
						C206.1,1099.3,206.1,1138.9,233.4,1155.6z"/>
					<path class="st1" d="M741.8,1262.2v-167.5c0-48.2-22.4-72.3-67.1-72.3c-16.3,0-29,1.4-37.9,4.1c-9,2.7-15.4,5.1-19.2,7v228.7
						h-81.6V982.8c1.6-0.8,6.2-2.7,14-5.8c9.8-3.8,19.8-7,30-9.6c14.2-3.7,28.6-6.6,43.2-8.8c17.9-2.6,35.9-3.9,54-3.8
						c21.8,0,41.7,2.7,59.8,8.2c18.1,5.4,33.5,13.4,46.4,23.9c12.8,10.4,23,23.7,29.7,38.8c7,15.4,10.5,33,10.5,52.8v183.8H741.8z"
						/>
					<path class="st1" d="M1218.9,1113.4c0,22.2-3.8,42.9-11.4,62.2c-7.3,18.8-18.4,35.9-32.7,50.2c-14.2,14.2-31.2,25.5-51,33.8
						c-19.8,8.4-42,12.5-66.5,12.5c-24.5,0-46.7-4.2-66.5-12.5c-19.8-8.4-36.8-19.6-51-33.8c-14.3-14.3-25.4-31.4-32.7-50.2
						c-7.6-19.3-11.4-40-11.4-62.2c0-22.2,3.8-42.9,11.4-62.2c7.3-18.8,18.4-35.9,32.7-50.2c14.2-14.2,31.2-25.5,51-33.8
						c19.8-8.4,42-12.5,66.5-12.5c24.5,0,46.7,4.2,66.5,12.5c19.8,8.4,36.8,19.6,51,33.8c14.2,14.3,25.3,31.4,32.6,50.2
						C1215.1,1070.6,1218.9,1091.3,1218.9,1113.4z M1136.1,1113.4c0.1-12.5-1.6-25-5-37c-3-10.8-8.2-20.9-15.2-29.7
						c-6.7-8.3-15.2-15.1-24.8-19.8c-9.7-4.8-21-7.3-33.8-7.3s-24.1,2.4-33.8,7.3c-9.6,4.8-18,11.5-24.8,19.8
						c-7,8.8-12.2,18.9-15.2,29.7c-6.6,24.3-6.6,49.8,0,74.1c3,10.8,8.1,21,15.2,29.7c6.7,8.3,15.2,15.1,24.8,19.8
						c9.7,4.8,21,7.3,33.8,7.3s24.1-2.4,33.8-7.3c9.6-4.8,18-11.5,24.8-19.8c7-8.8,12.2-18.9,15.2-29.7
						C1134.5,1138.4,1136.2,1126,1136.1,1113.4z"/>
					<path class="st1" d="M1390.4,1031.2v128.9c0,17.1,4,28.7,12,34.7c8,6,18.4,9,31.2,9c5.4,0,10.8-0.7,16-2
						c4.8-1.2,9.5-2.8,14-4.7c3.5-1.5,7-3.2,10.2-5.2c1.6-1,3.2-2.1,4.7-3.2l30.3,49c-0.8,0.8-3.3,2.9-7.6,6.5
						c-4.3,3.5-10.4,7.2-18.4,11.1c-8,3.9-17.7,7.4-29.2,10.5c-11.5,3.1-24.4,4.7-38.8,4.7c-37.3,0-64.4-9.5-81.1-28.6
						c-16.7-19.1-25.1-43.8-25.1-74.1v-136.5h-19.2c-13.2,0-22.5-2.9-27.7-8.8c-5.2-5.8-7.9-14-7.8-24.5c0-8.2,1.2-15.3,3.5-21.3
						s3.9-10,4.7-12h46.7v-51.3c0-13.2,3.9-22.4,11.7-27.4c7.8-5.1,18.1-7.6,30.9-7.5c8.4-0.1,16.7,0.9,24.8,2.9
						c7.6,1.9,12.3,3.3,14.3,4.1v79.3h62.4c13.2,0,22.5,2.9,27.7,8.8c5.3,5.8,7.9,14,7.9,24.5c0,8.2-1.2,15.3-3.5,21.3
						c-2.3,6-3.9,10-4.7,12H1390.4z"/>
					<path class="st1" d="M1831.4,1069.7c0,12.1-1.7,22.9-5,32.7c-3.1,9.4-8.5,18-15.8,24.8c-7.2,6.8-16.7,12.1-28.6,15.8
						c-11.9,3.7-26.5,5.5-44,5.5h-116.7c3.5,16,12.8,29.5,28,40.5c15.2,11.1,35.2,16.6,60.1,16.6c24.9,0,44-1.8,57.5-5.5
						c13.4-3.7,21.7-6.3,24.8-7.9l22.2,57.7c-0.8,0.8-4.1,2.3-9.9,4.7c-7.7,2.9-15.6,5.3-23.6,7.3c-9.9,2.5-21.7,4.9-35.3,7
						c-15.1,2.2-30.3,3.3-45.5,3.2c-23.3,0-44.8-3.1-64.5-9.3c-19.6-6.2-36.8-15.8-51.3-28.6c-14.6-12.8-26-29-34.1-48.4
						c-8.2-19.5-12.2-42.4-12.2-68.8c0-24.5,3.8-46.7,11.4-66.5s18.3-36.8,32.1-51c13.8-14.2,30.4-25.2,49.9-33s41-11.7,64.7-11.7
						c22.2,0,41.7,3,58.6,9s31.1,14.3,42.5,24.8c11.2,10.2,20.1,22.7,26,36.7C1828.5,1039.4,1831.5,1054.5,1831.4,1069.7z
						 M1754.4,1062.7c-0.1-6-1.2-11.9-3.2-17.5c-2.2-6.3-5.7-12.1-10.2-17c-4.7-5-10.9-9.2-18.7-12.5c-7.8-3.3-17.3-5-28.6-4.9
						c-12.4,0-23.3,2.7-32.7,8.2c-9,5.2-17,12.1-23.3,20.4c-6.2,8.1-10.9,17.2-14,26.8c-3,9-4.6,18.5-4.7,28h104.4
						c12.8,0,21.2-2.6,25.1-7.9C1752.5,1081.1,1754.4,1073.2,1754.4,1062.7z"/>
					<path class="st1" d="M1993,1219c0,14.8-5.2,27.3-15.5,37.6c-10.3,10.3-22.8,15.5-37.6,15.5c-14.8,0-27.3-5.2-37.6-15.5
						c-10.3-10.3-15.5-22.8-15.5-37.6c0-14.8,5.2-27.3,15.5-37.6c10.3-10.3,22.8-15.5,37.6-15.5c14.8,0,27.3,5.2,37.6,15.5
						C1987.9,1191.7,1993,1204.3,1993,1219z"/>
				</g>
			</g>
		</g>
	</g>
</g>
</svg>
