<svg xmlns="http://www.w3.org/2000/svg" viewBox="0 0 2205.94 492.11"><defs><style>.cls-1{fill:#fff;stroke:#fff;stroke-miterlimit:10;}</style></defs><title>accent-it-note</title><g id="Layer_2" data-name="Layer 2"><g id="Layer_1-2" data-name="Layer 1"><g id="Layer_2-2" data-name="Layer 2"><g id="Layer_1-2-2" data-name="Layer 1-2"><path class="cls-1" d="M25.82,343.9l228.3,139.82c35.32,21.63,80.68-3.79,80.68-45.2V158.88c0-41.41-45.37-66.83-80.68-45.2L25.82,253.5C-7.94,274.18-7.94,323.22,25.82,343.9Z"/><path class="cls-1" d="M655.56,476V268.57q0-89.59-83.09-89.6-30.35,0-47,5.06t-23.84,8.67V476H400.5V129.84q2.88-1.44,17.34-7.23A346.42,346.42,0,0,1,455,110.69,498.17,498.17,0,0,1,508.5,99.85a443.55,443.55,0,0,1,66.84-4.7q40.46,0,74.06,10.12t57.44,29.62a131.85,131.85,0,0,1,36.85,48.05q13,28.55,13,65.39V476Z"/><path class="cls-1" d="M1246.6,291.69q0,41.19-14.09,77a180.24,180.24,0,0,1-40.46,62.14q-26.38,26.38-63.22,41.91t-82.33,15.49q-45.52,0-82.37-15.54t-63.22-41.91a180.08,180.08,0,0,1-40.46-62.14q-14.09-35.77-14.09-77t14.09-77a180.19,180.19,0,0,1,40.46-62.14q26.37-26.37,63.22-41.91t82.37-15.43q45.52,0,82.37,15.54t63.22,41.91a180.35,180.35,0,0,1,40.41,62.13Q1246.6,250.5,1246.6,291.69Zm-102.6,0a165.41,165.41,0,0,0-6.14-45.88A102.9,102.9,0,0,0,1119.07,209a92.68,92.68,0,0,0-30.71-24.57q-18.07-9-41.91-9t-41.91,9A92.45,92.45,0,0,0,973.83,209,102.54,102.54,0,0,0,955,245.81a174.46,174.46,0,0,0,0,91.77,102.35,102.35,0,0,0,18.79,36.85A92.17,92.17,0,0,0,1004.5,399q18.05,9,41.91,9t41.91-9A92.4,92.4,0,0,0,1119,374.42a102.71,102.71,0,0,0,18.79-36.85A165.29,165.29,0,0,0,1144,291.69Z"/><path class="cls-1" d="M1459,189.81V349.5q0,31.8,14.81,43t38.66,11.2a78.54,78.54,0,0,0,19.87-2.53,121.26,121.26,0,0,0,17.34-5.78,87.2,87.2,0,0,0,12.64-6.5,58.58,58.58,0,0,0,5.78-4l37.57,60.7q-1.46,1.46-9.39,8t-22.76,13.73q-14.82,7.23-36.13,13t-48.05,5.78q-69.37,0-100.44-35.41t-31.07-91.77V189.81H1334q-24.57,0-34.32-10.84T1290,148.62q0-15.17,4.34-26.37t5.78-14.81h57.8V43.85q0-24.56,14.45-34T1410.62.5a123.64,123.64,0,0,1,30.71,3.61q14.09,3.62,17.7,5.06v98.27h77.31q24.56,0,34.32,10.84t9.75,30.35q0,15.17-4.34,26.37t-5.78,14.81Z"/><path class="cls-1" d="M2005.29,237.5q0,22.41-6.14,40.46a74.62,74.62,0,0,1-19.51,30.71q-13.38,12.65-35.41,19.51T1889.68,335H1745.16q6.5,29.64,34.68,50.22t74.42,20.59q46.23,0,71.17-6.86t30.71-9.75l27.46,71.53q-1.46,1.46-12.28,5.78a243.81,243.81,0,0,1-29.26,9q-18.43,4.69-43.71,8.67a365.94,365.94,0,0,1-56.36,4q-43.35,0-79.84-11.56t-63.59-35.41q-27.1-23.84-42.27-60T1641.12,296q0-45.52,14.09-82.37T1695,150.4q25.64-26.37,61.78-40.82t80.2-14.45q41.19,0,72.62,11.2T1962.3,137a127.79,127.79,0,0,1,32.15,45.52A141.38,141.38,0,0,1,2005.29,237.5Zm-95.38-8.67a67.1,67.1,0,0,0-4-21.68,59,59,0,0,0-12.64-21q-8.67-9.38-23.12-15.54t-35.39-6.11q-23.13,0-40.46,10.12a97.82,97.82,0,0,0-28.9,25.29,109.48,109.48,0,0,0-17.34,33.24,113.49,113.49,0,0,0-5.78,34.68h129.34q23.84,0,31.07-9.75T1909.91,228.83Z"/><path class="cls-1" d="M2205.44,422.5q0,27.47-19.15,46.61t-46.61,19.15q-27.47,0-46.61-19.15t-19.14-46.61q0-27.45,19.15-46.61t46.61-19.15q27.45,0,46.61,19.15T2205.44,422.5Z"/></g></g></g></g></svg>