<?xml version="1.0" encoding="utf-8"?>
<!-- Generator: Adobe Illustrator 21.1.0, SVG Export Plug-In . SVG Version: 6.00 Build 0)  -->
<svg version="1.1" id="Layer_1" xmlns="http://www.w3.org/2000/svg" xmlns:xlink="http://www.w3.org/1999/xlink" x="0px" y="0px"
	 viewBox="0 0 784 784" style="enable-background:new 0 0 784 784;" xml:space="preserve">
<style type="text/css">
	.st0{fill:#FFFFFF;}
	.st1{fill:#333333;}
</style>
<title>accentlogo</title>
<g>
	<circle class="st0" cx="392" cy="392" r="392"/>
	<g id="Layer_2">
		<g id="Layer_1-2">
			<path class="st1" d="M147.6,458.4c-13.2-6.1-24.3-16-31.9-28.4l-30.6,10.9l-0.1-0.1l26.3-18.6c-1.1-3-2.3-5.9-3.2-8.9
				c-4.2-13.4-4.3-27.7-0.6-41.2c0.3-1,0.1-1.4-0.8-1.9c-10.4-5.4-20.9-10.9-31.3-16.4c-0.3-0.1-0.6-0.4-0.8-0.6l36.5,8.8
				c6.1-13.5,16-24.9,28.6-32.8l-13.2-29.2l0.1-0.1l20.9,24.9c3-1.1,5.8-2.3,8.8-3.2c14.5-4.6,30.1-4.5,44.5,0.2
				c0.6,0.3,1.3,0.1,1.7-0.5c0-0.1,0.1-0.2,0.1-0.3c5.8-10.7,11.7-21.3,17.6-31.9c0.1-0.2,0.3-0.4,0.5-0.5l-9.7,37.2
				c15,7.5,27,19.9,34.1,35l29.9-10.6l0.1,0.1c-0.2,0.2-0.5,0.4-0.7,0.5c-8.4,6-16.8,11.9-25.3,17.9c-0.5,0.3-0.8,0.6-0.6,1.3
				c4.3,14,4.4,29,0.1,43.1c0,0.1-0.1,0.3-0.1,0.5l35.4,18.7l-0.1,0.2c-1-0.2-2-0.4-2.9-0.7c-11.8-2.8-23.5-5.7-35.3-8.5
				c-0.7-0.2-1,0-1.3,0.6c-5.9,12.2-15.1,22.5-26.5,29.7c-0.3,0.2-0.5,0.4-0.8,0.6l13.2,29.2l-0.1,0.1c-0.2-0.2-0.3-0.3-0.5-0.5
				c-6.6-7.9-13.3-15.8-19.9-23.7c-0.3-0.5-1-0.7-1.5-0.4c0,0,0,0-0.1,0c-15.9,7.1-33.8,8.3-50.5,3.4c-0.5-0.3-1.2-0.1-1.5,0.5
				c0,0.1-0.1,0.1-0.1,0.2c-6,11-12,21.9-18,32.9c-0.1,0.3-0.4,0.6-0.6,0.7L147.6,458.4z M163,399.7c0.2,0.3,0.4,0.6,0.5,0.9
				c3.8,7.3,12.3,11,20.2,8.9l2.2-0.6l-20.6,37.5c25.8,6.2,51.3-6.7,62.3-27.5l-41.5-10c8.6-5.6,12.8-12.8,9.6-23.2l37.4,19.7
				c2.9-11.4,2.1-23.5-2.3-34.4c-4.8-12-12.9-21.3-24.1-28l-11.1,42.5c-5.5-9.1-13.2-12.2-23.4-9l21.4-38.9
				c-24.4-7.3-53.1,4-65.2,28.5l43.5,10.5c-0.1,0.1-0.1,0.1-0.2,0.2l-0.8,0.4c-4.3,2.4-7.4,6.4-8.7,11.1
				C161.3,392,161.5,396.1,163,399.7c-0.1,0-0.2-0.1-0.3-0.2l-38.5-20.2c-0.2-0.1-0.4-0.2-0.6-0.2c-6.1,26.1,7.6,51.7,28.5,62.2
				c0.5-1.7,0.9-3.4,1.4-5.1L163,399.7z"/>
			<path class="st1" d="M221.7,282.4l-1.1,2.9l-0.3-0.1c0.2-0.5,0.3-1,0.5-1.5c0.2-0.5,0.3-1,0.5-1.5c0.1-0.2,0.3-0.4,0.5-0.5
				c0.2,0.2,0.4,0.4,0.5,0.6c0.2,0.9,0.4,1.7,0.6,2.6l0.9-2.5l0.4,0.1c-0.3,1.1-0.7,2.2-1.2,3.3c-0.3,0.5-0.6-0.1-0.7-0.5
				C222.1,284.5,221.9,283.5,221.7,282.4z"/>
			<path class="st1" d="M69.3,351.1l1.6-2l0.3,0.1l-0.2,2.6l1.6-2l0.3,0.2c-0.6,0.8-1.2,1.5-1.8,2.3c-0.1,0.1-0.3,0.1-0.3,0.1
				c-0.1-0.1-0.2-0.3-0.2-0.5c0.1-0.6,0.1-1.2,0-1.8l-1.5,1.9c-0.4-1.3,0-2.4,0-3.4h0.4L69.3,351.1z"/>
			<path class="st1" d="M137.5,499.5c-0.1-0.1-0.3-0.3-0.5-0.3c-0.3,0-0.6,0-0.9,0c0,0.3,0.1,0.6,0.1,0.8c0,0.1,0.3,0.2,0.3,0.4
				c0.2,0.4,0.3,0.9,0.3,1.4c-0.1,0.3-0.7,0.6-1,0.6c-0.7,0.1-1.2-0.4-1.3-1.1c0,0,0,0,0,0c0.3,0.2,0.6,0.4,0.9,0.5
				c0.3,0,0.6,0,0.9-0.1c0-0.3-0.1-0.6-0.1-0.8c-0.1-0.2-0.4-0.4-0.5-0.6c-0.2-0.4-0.2-0.8-0.2-1.1c0.2-0.3,0.5-0.5,0.9-0.5
				c0.4,0.1,0.8,0.3,1.2,0.6L137.5,499.5z"/>
			<path class="st1" d="M286.8,431.9l1.5,0.6l-0.1,0.2l-1.2-0.3l-0.3,0.7l0.9,0.6l-0.1,0.1l-1-0.2l-0.4,0.8l1.1,0.6l-0.1,0.2
				l-1.5-0.6L286.8,431.9z"/>
			<path class="st1" d="M295,402.4l-3,9.2h-3l11.3-33.9h3.7l11.3,33.9h-3.1l-3-9.2H295z M302.2,380.2l-6.3,19.7h12.6L302.2,380.2z"
				/>
			<path class="st1" d="M340.4,380.3l-1.6,2c-1.9-1.7-4.4-2.6-6.9-2.6c-5.9,0-10.8,4.1-10.8,14.9c0,10.3,4.7,14.9,10.6,14.9
				c3.5,0,5.5-1.3,7.5-2.9l1.6,2c-2.5,2.3-5.8,3.6-9.1,3.5c-7.8,0-13.6-6.1-13.6-17.5c0-11.5,6.2-17.5,13.7-17.5
				C334.9,377.1,338,378.2,340.4,380.3z"/>
			<path class="st1" d="M366.6,380.3l-1.6,2c-1.9-1.7-4.4-2.6-6.9-2.6c-5.9,0-10.8,4.1-10.8,14.9c0,10.3,4.7,14.9,10.6,14.9
				c3.5,0,5.5-1.3,7.5-2.9l1.6,2c-2.5,2.3-5.8,3.6-9.1,3.5c-7.8,0-13.6-6.1-13.6-17.5c0-11.5,6.2-17.5,13.7-17.5
				C361.1,377.1,364.2,378.2,366.6,380.3z"/>
			<path class="st1" d="M376.6,380.2v12.6h12v2.5h-12v13.8h14.6v2.5h-17.6v-33.9h17.2l-0.3,2.5H376.6z"/>
			<path class="st1" d="M417.3,411.6l-16-30.6c0.1,2.3,0.4,5.6,0.4,11.7v19h-2.8v-33.9h3.8l16.1,30.6c-0.1-1.4-0.4-5.6-0.4-10v-20.6
				h2.8v33.9L417.3,411.6z"/>
			<path class="st1" d="M440.4,380.4v31.3h-2.9v-31.3h-10.1v-2.6h23.2l-0.3,2.6H440.4z"/>
			<path class="st1" d="M470.5,411.6v-33.9h3v33.9H470.5z"/>
			<path class="st1" d="M492.6,380.4v31.3h-2.9v-31.3h-10v-2.6h23.2l-0.3,2.6H492.6z"/>
			<path class="st1" d="M540.2,381l-1.8,1.9c-2.1-2.1-4.9-3.2-7.9-3.2c-4.1,0-7,2.2-7,5.8s1.8,5,7.9,6.9c6.1,1.8,9.8,4,9.8,10
				c0,5.8-4.4,9.8-11.2,9.8c-4,0.1-7.9-1.4-10.8-4.3l1.8-1.9c2.4,2.4,5.6,3.7,9,3.7c4.7,0,8.2-2.6,8.2-7.2c0-4.1-2-5.8-8.1-7.7
				c-6.7-2.1-9.6-4.4-9.6-9.3c0-4.9,4-8.3,10-8.3C534,377.1,537.5,378.4,540.2,381z"/>
			<path class="st1" d="M552.3,380.2v12.6h12v2.5h-12v13.8h14.6v2.5h-17.6v-33.9h17.2l-0.3,2.5H552.3z"/>
			<path class="st1" d="M577.6,396.4v15.2h-3v-33.9h8.2c8.2,0,12.1,3.2,12.1,9.2c0,5-2.8,7.7-7.6,9l9.3,15.7h-3.6l-8.7-15.2H577.6z
				 M591.8,386.9c0-4.5-2.5-6.8-9-6.8h-5.1V394h5.6C588.7,394,591.8,391.9,591.8,386.9z"/>
			<path class="st1" d="M609.5,411.6l-11.1-33.9h3.2l9.5,30.8l9.6-30.8h3.1l-11,33.9L609.5,411.6z"/>
			<path class="st1" d="M630.1,411.6v-33.9h3v33.9H630.1z"/>
			<path class="st1" d="M664.2,380.3l-1.6,2c-1.9-1.7-4.4-2.6-6.9-2.6c-5.9,0-10.8,4.1-10.8,14.9c0,10.3,4.7,14.9,10.6,14.9
				c3.5,0,5.5-1.3,7.5-2.9l1.6,2c-2.5,2.3-5.8,3.6-9.1,3.5c-7.8,0-13.6-6.1-13.6-17.5c0-11.5,6.2-17.5,13.7-17.5
				C658.7,377.1,661.8,378.2,664.2,380.3z"/>
			<path class="st1" d="M674.2,380.2v12.6h12v2.5h-12v13.8h14.6v2.5h-17.6v-33.9h17.2l-0.3,2.5H674.2z"/>
			<path class="st1" d="M714,381l-1.8,1.9c-2.1-2.1-4.9-3.2-7.9-3.2c-4.1,0-7,2.2-7,5.8s1.8,5,7.9,6.9c6.1,1.8,9.8,4,9.8,10
				c0,5.8-4.4,9.8-11.2,9.8c-4,0.1-7.9-1.4-10.8-4.3l1.8-1.9c2.4,2.4,5.6,3.7,9,3.7c4.7,0,8.2-2.6,8.2-7.2c0-4.1-2-5.8-8.1-7.7
				c-6.7-2.1-9.6-4.4-9.6-9.3c0-4.9,4-8.3,9.9-8.3C707.9,377.1,711.4,378.4,714,381z"/>
		</g>
	</g>
</g>
</svg>
