<svg id="Layer_1" data-name="Layer 1" xmlns="http://www.w3.org/2000/svg" viewBox="0 0 475.35 478.82"><defs><style>.cls-1{fill:#fff;}</style></defs><title>Accent IT Services Logo</title><path class="cls-1" d="M-359.57,474.3l21.63-82.39c-.7-.37-1.3-.71-1.91-1a158.88,158.88,0,0,1-65.86-58.71c-.92-1.45-1.64-1.76-3.29-1.16q-31.11,11.18-62.27,22.2a4.72,4.72,0,0,1-2,.35l57.09-40.4c-1.67-4.29-3.43-8.45-4.91-12.71a159.93,159.93,0,0,1-3.29-96.58c.61-2.23.11-3.08-1.85-4.1q-34-17.7-67.82-35.58a3.74,3.74,0,0,1-1.64-1.4l79.07,19.08a160.73,160.73,0,0,1,62-70.93l-28.61-63.34.32-.2,45.11,53.75c9.57-3.11,18.64-6.62,28-9a157.24,157.24,0,0,1,88.15,2.87c1.87.6,2.72.38,3.7-1.43q18.87-34.52,37.91-68.95a3.8,3.8,0,0,1,1.24-1.48l-21,80.62c33,16.92,57.64,42.12,73.77,75.87l64.86-23.07.15.32c-.84.6-1.67,1.21-2.51,1.81q-26.92,19-53.85,38.07c-1.08.76-1.57,1.36-1.13,2.83a160.75,160.75,0,0,1,.11,94.26c-.06.2-.08.41-.17.92L-42,335.24l-.15.41-10.07-2.41q-36.31-8.75-72.61-17.53c-1.27-.31-1.94-.28-2.59,1.05a159.13,159.13,0,0,1-58.1,65.06c-.35.22-.67.48-1.18.84l28.54,63.19-.29.18-1.14-1.34q-21.47-25.59-42.91-51.2c-1.11-1.33-1.9-1.44-3.46-.76-35.66,15.54-72.23,17.88-109.64,7.37-1.8-.51-2.62-.24-3.54,1.45q-19.44,35.64-39,71.2c-.32.58-.67,1.14-1,1.7Zm55-209.56c.32.54.66,1.06,1,1.61,8.78,16.33,26.1,24.06,44.06,19.64,1.58-.39,3.14-.84,5.1-1.37L-299.69,366c30.54,6.56,59.32,3.36,86.56-11.18,21.07-11.25,37.31-27.48,49.19-48.48l-90.35-21.81c9.34-5.2,16.24-12.14,20.39-21.49,4.23-9.55,4.07-19.35.35-29.66l80.85,43.8c5.67-19.16,6.46-50.38-5.85-78.59-10.74-24.61-27.71-43.68-51-57.57l-24.08,92.4c-4.93-9.63-12-16.29-21.58-20.08s-19.42-3.26-29.48.49l47.1-84.51c-54.08-15.89-115.83,9.07-141.83,61.61l94.29,22.78a4.25,4.25,0,0,1-.41.43c-.55.31-1.11.59-1.65.91-9.55,5.56-16,13.59-18.88,24.29a41.3,41.3,0,0,0,1.51,25.49c-10.56-5.86-21-11.86-31.69-17.55-16.6-8.88-33.3-17.56-50-26.32-1.16-.61-2.33-1.2-3.76-1.93-6,28.91-3.32,56.55,9.86,82.87,11.58,23.13,29,40.68,51.83,53.17,1.06-4,2-7.7,3-11.4Z" transform="translate(508.2 -8.28)"/><path class="cls-1" d="M-177,9.83l-2.28,6.33-.73-.21a9.29,9.29,0,0,1,.24-1.36c.59-1.79,1.18-3.57,1.84-5.33.14-.38.59-.65.9-1,.36.36.94.68,1,1.1.43,1.89.72,3.81,1.18,6.4l2.32-6,.83.29c-.53,1.57-1,3.17-1.61,4.7a23.91,23.91,0,0,1-1.64,2.85,32.12,32.12,0,0,1-1.17-3.15C-176.42,13.17-176.6,11.78-177,9.83Z" transform="translate(508.2 -8.28)"/><path class="cls-1" d="M-507.93,160.56c-.69-3,.13-5.25.23-7.55l.72,0-.39,5.66,3.44-4.41.64.17-.48,5.8,3.56-4.5.63.49-4,5c-.37-.37-1-.73-1.05-1.11a33.83,33.83,0,0,1,.39-4.07Z" transform="translate(508.2 -8.28)"/><path class="cls-1" d="M-365.68,485.48c1.17.13,2.86.8,3.41.28,1.32-1.26-.6-2-1.09-3a3.81,3.81,0,0,1-.44-2.62,2.59,2.59,0,0,1,2.16-1.07c.8.06,1.55.82,2.72,1.51l-3.8-.22a30.58,30.58,0,0,1,1.34,2.92c.29.85.79,2,.43,2.61a3.18,3.18,0,0,1-2.51,1.22c-.93-.07-1.8-.92-2.69-1.43Z" transform="translate(508.2 -8.28)"/><path class="cls-1" d="M-35.34,342l-3.24-1.24,2.49-6.14,3.24,1.36-.15.49-2.52-.69-.72,1.62,1.92,1.21-.14.3-2.06-.49-.95,1.73,2.31,1.48Z" transform="translate(508.2 -8.28)"/></svg>