<?xml version="1.0" encoding="utf-8"?>
<!-- Generator: Adobe Illustrator 21.1.0, SVG Export Plug-In . SVG Version: 6.00 Build 0)  -->
<svg version="1.1" id="Layer_1" xmlns="http://www.w3.org/2000/svg" xmlns:xlink="http://www.w3.org/1999/xlink" x="0px" y="0px"
	 viewBox="0 0 345.8 345.8" style="enable-background:new 0 0 345.8 345.8;" xml:space="preserve">
<style type="text/css">
	.st0{clip-path:url(#SVGID_2_);}
	.st1{fill:#FFFFFF;}
	.st2{fill:#333333;}
</style>
<title>apos-logo_1</title>
<g>
	<g>
		<defs>
			<rect id="SVGID_1_" x="-32.9" y="44.3" width="418.9" height="226"/>
		</defs>
		<clipPath id="SVGID_2_">
			<use xlink:href="#SVGID_1_"  style="overflow:visible;"/>
		</clipPath>
		<g id="Layer_2" class="st0">
			<g id="Layer_1-2">
				<g>
					<g id="Layer_2-2">
						<defs>
							<rect id="SVGID_3_" x="-448.8" y="-27.7" width="415.9" height="415.9"/>
						</defs>
						<clipPath id="SVGID_4_">
							<use xlink:href="#SVGID_3_"  style="overflow:visible;"/>
						</clipPath>
					</g>
				</g>
			</g>
		</g>
	</g>
</g>
<g>
	<circle class="st1" cx="172.9" cy="172.9" r="172.9"/>
	<g>
		<path class="st2" d="M104.3,192H73l-6.8,25.3h-2.8l22.9-88.8h4.8l22.2,88.8h-2.8L104.3,192z M73.7,189.5h30l-14.5-59.1h-0.5
			L73.7,189.5z"/>
		<path class="st2" d="M163.5,150.6c0,3.7-0.5,7-1.5,9.8c-1,2.9-2.4,5.3-4.1,7.3c-1.7,2-3.7,3.5-6.1,4.5c-2.3,1-4.8,1.6-7.5,1.6
			h-15.4v43.5h-2.8v-88.8h17.4c2.3,0,4.6,0.4,6.9,1.1c2.3,0.7,4.5,1.9,6.4,3.6c1.9,1.7,3.5,3.9,4.8,6.8
			C162.8,142.8,163.5,146.3,163.5,150.6z M160.7,150.7c0-3.6-0.5-6.6-1.4-9.1c-1-2.5-2.2-4.5-3.8-6c-1.6-1.6-3.3-2.7-5.3-3.4
			c-1.9-0.7-3.8-1.1-5.8-1.1h-15.5v40.3h15.9c1.9,0,3.8-0.4,5.8-1.2c1.9-0.8,3.6-2,5.1-3.7c1.5-1.7,2.7-3.8,3.6-6.4
			C160.2,157.4,160.7,154.3,160.7,150.7z"/>
		<path class="st2" d="M229.2,172.9c0,6.8-0.6,13-1.8,18.7c-1.2,5.7-3,10.6-5.3,14.7c-2.3,4.1-5.1,7.3-8.4,9.6
			c-3.3,2.3-7.1,3.4-11.3,3.4c-4.3,0-8-1.2-11.3-3.4c-3.3-2.3-6.1-5.5-8.4-9.6c-2.3-4.1-4.1-9-5.3-14.7c-1.2-5.7-1.8-11.9-1.8-18.7
			c0-6.8,0.6-13,1.7-18.7c1.1-5.7,2.8-10.6,5.1-14.7c2.3-4.1,5.1-7.3,8.4-9.6c3.3-2.3,7.2-3.4,11.7-3.4c4.3,0,8,1.1,11.3,3.4
			c3.3,2.3,6.1,5.5,8.4,9.6c2.3,4.1,4.1,9,5.3,14.7C228.6,159.9,229.2,166.1,229.2,172.9z M226.4,172.9c0-6.1-0.5-11.8-1.6-17.2
			c-1-5.3-2.6-10-4.6-13.9c-2-3.9-4.5-7-7.5-9.3c-3-2.3-6.5-3.4-10.4-3.4c-4.1,0-7.6,1.1-10.7,3.4c-3,2.3-5.5,5.4-7.5,9.3
			c-2,3.9-3.5,8.6-4.5,13.9c-1,5.4-1.4,11.1-1.4,17.2c0,6.1,0.5,11.8,1.4,17.1c1,5.3,2.4,9.9,4.5,13.9c2,4,4.5,7.1,7.5,9.4
			c3,2.3,6.6,3.4,10.7,3.4c4,0,7.5-1.1,10.5-3.4c3-2.3,5.5-5.4,7.5-9.4c2-4,3.5-8.6,4.5-13.9C225.9,184.7,226.4,179,226.4,172.9z"/>
		<path class="st2" d="M282.3,196.5c0,3.7-0.5,6.9-1.6,9.8c-1,2.8-2.5,5.2-4.3,7.1c-1.8,1.9-3.9,3.4-6.3,4.4c-2.4,1-4.9,1.5-7.5,1.5
			c-4.3,0-8-0.9-11.3-2.8c-3.3-1.9-6-4.6-8.1-8.1l2.3-1.6c2,3.3,4.6,5.9,7.6,7.5c3.1,1.7,6.2,2.5,9.4,2.5c2.3,0,4.4-0.5,6.5-1.4
			c2-0.9,3.8-2.2,5.4-3.9c1.5-1.7,2.8-3.8,3.8-6.4c1-2.5,1.4-5.5,1.4-8.7c0-3-0.5-5.7-1.5-8c-1-2.3-2.3-4.4-4-6.2
			c-1.6-1.8-3.4-3.4-5.5-4.7c-2-1.3-4-2.5-6-3.5c-2.3-1.2-4.6-2.5-6.8-3.9c-2.2-1.5-4.2-3.2-5.8-5.1c-1.7-2-3-4.2-4.1-6.8
			c-1-2.6-1.6-5.6-1.6-9c0-3.7,0.5-6.9,1.6-9.7c1.1-2.8,2.5-5.1,4.4-7c1.8-1.9,4-3.3,6.4-4.3c2.4-1,5-1.4,7.6-1.4
			c3.4,0,6.6,0.7,9.5,2.1c2.9,1.4,5.2,3.7,7.1,7l-2,1.6c-1.8-3.1-4-5.2-6.5-6.4c-2.5-1.2-5.2-1.8-8.2-1.8c-2.1,0-4.2,0.4-6.2,1.2
			c-2,0.8-3.9,2-5.5,3.6c-1.6,1.6-2.9,3.7-4,6.3c-1,2.6-1.5,5.6-1.5,9.1c0,3.1,0.5,5.8,1.4,8.1c0.9,2.3,2.1,4.3,3.6,6
			c1.5,1.7,3.2,3.1,5.1,4.4c1.9,1.3,3.7,2.3,5.6,3.3c2.6,1.3,5.1,2.8,7.4,4.3c2.3,1.5,4.4,3.3,6.2,5.3c1.8,2,3.2,4.3,4.3,6.9
			C281.8,190.1,282.3,193.1,282.3,196.5z"/>
	</g>
</g>
</svg>
