<?xml version="1.0" encoding="utf-8"?>
<!-- Generator: Adobe Illustrator 21.1.0, SVG Export Plug-In . SVG Version: 6.00 Build 0)  -->
<svg version="1.1" id="Layer_1" xmlns="http://www.w3.org/2000/svg" xmlns:xlink="http://www.w3.org/1999/xlink" x="0px" y="0px"
	 viewBox="0 0 1498.9 1497.4" style="enable-background:new 0 0 1498.9 1497.4;" xml:space="preserve">
<style type="text/css">
	.st0{fill:#FFFFFF;}
	.st1{fill:#333333;}
</style>
<circle class="st0" cx="749.4" cy="748" r="749.4"/>
<title>osg-logo</title>
<g id="Layer_2">
	<g id="Layer_1-2">
		<path class="st1" d="M491.2,564.6c4.7,2.5,6,6.4,6,11.6c-0.2,17.5-0.1,35-0.1,52.5c0,1.3,0,2.7,0,4.4h4.7c20.3,0,40.6,0,61,0
			c7.7,0,10.6,2.8,10.6,10.4c0,74.7,0,149.5,0,224.2c0,7.8-3,10.7-10.7,10.7c-38.5,0-77.1,0-115.6,0h-5.3v4.1
			c0,12.8-0.2,25.6,0.1,38.4c0.1,5.2-1.3,9.1-5.9,11.7H195.5c0-80.8,0-161.6,0-242.4c2.7-1,5.3-2.8,8-2.8
			c13.8-0.3,27.5-0.1,41.3-0.1h4.3c0-2,0-3.6,0-5.2c0-35.5,0.1-71.1-0.1-106.6c0-5.1,1.6-8.8,6.3-10.9H491.2z M424.5,878.5h-4.8
			c-28,0-55.9,0-83.9,0c-7.6,0-10.5-3-10.5-10.5c0-17.9,0-35.7,0-53.6c0-1.4,0-2.8,0-4.4h-64.9c-8.6,0-11.3-2.7-11.3-11.2
			c0-29.9,0-59.9,0-89.8c0-1.5,0-3.1,0-4.6h-38.6v211.2h214V878.5z M556.2,861.6V650.1h-59.1v4.6c0,48.4,0,96.8,0,145.2
			c0,7-3.1,10.2-10.1,10.2c-13.8,0-27.6,0-41.4,0h-3.7v51.6L556.2,861.6z M266.1,581.6v105.5h59.2v-4.2c0-12.8,0-25.6,0-38.4
			c0-8.9,2.5-11.3,11.5-11.3H480v-51.5H266.1z M441.6,793H480V650.1H342.3v37.2h88.2c8.2,0,11.1,2.9,11.1,11.1c0,29.9,0,59.9,0,89.8
			L441.6,793z M342.3,704.3V793h82.1v-88.6H342.3z M325.2,704.4h-59.1v88.5h59.1V704.4z M424.6,810.3h-82.4v51.2h82.4V810.3z"/>
		<path class="st1" d="M736.5,875.7c-27.4-0.1-53.3-5.8-76.4-21.5c-29.1-19.8-45.7-47.3-50-82.2c-2.7-22.2-1.3-44,6.5-65.2
			c7.8-21,21.4-37.5,39.5-50.4c24.3-17.5,51.9-24.3,81.5-24c19.8,0.2,39.1,3.3,57.2,11.5c38.5,17.6,62.6,46.6,68.2,89.3
			c3.2,24.2,1.7,48.1-8,70.8c-15.9,37-44.4,59.1-83.3,67.9c-11.4,2.6-23.3,3.2-35.1,4.6L736.5,875.7z M648.7,753.6
			c0,3.8-0.2,7.6,0,11.4c1,19.3,3.7,38.2,11.8,56c7.6,16.7,19.1,29.7,36,37.5c15.9,7.4,32.9,9.3,50.1,8.1
			c23.9-1.7,43.4-12,57.5-31.7c10.2-14.1,15.3-30.2,17.8-47.2c4.4-30.4,4.1-60.7-5.7-90.2c-5.5-16.6-14.3-31.3-28.9-41.4
			c-25.5-17.7-53.6-19.1-82.3-10.3c-25.2,7.7-39.9,26.4-48.3,50.6C650.4,715,648.6,734.1,648.7,753.6z"/>
		<path class="st1" d="M1254,667.3l7.4-26.3h7.3v77.9h-7.8c-1.1-4.8-2-9.7-3.3-14.5c-6.1-22.8-18.4-41.3-39.2-53.3
			c-28.9-16.8-67.2-12.4-92.4,9.7c-14.5,12.7-21.9,29-25.3,47.2c-6.4,34-6.4,67.9,2.8,101.4c7.1,26,23.3,44.3,48.9,53.3
			c20.3,7.2,40.7,6.2,60.3-3.2c15.8-7.6,23.5-20.5,24.2-37.6c0.3-8,0.1-16-0.6-24c-1-12.4-6.1-17.2-18.6-18c-4.9-0.3-9.8-0.1-15-0.1
			v-8.4h100.7v7.8c-4.7,0.4-9.4,0.6-14,1.2c-10.5,1.4-16.3,6.7-16.8,17.3c-0.9,18.1-1,36.2-1.4,54.3c0,1.6,0,3.1,0,5
			c-17.3-2.1-32.5,4.2-47.9,9.6c-30.8,10.8-62.1,13.5-92.9,1.4c-39.8-15.6-64.1-44.9-71.3-87.2c-5.2-30.5-0.7-59.9,14.2-87.3
			c22.3-41.1,56.8-61.7,103.9-61.1c29.5,0.4,54.4,11,74.6,32.7C1252,665.5,1252.4,665.9,1254,667.3z"/>
		<path class="st1" d="M1004.1,657.4c2.4-5.3,5.2-10.2,7-15.5c2-5.8,2-6.1,8.5-4.8v60.8c-1.2,0.1-2.4,0.1-3.6,0.2
			c-2.8,0.4-4.1-0.7-4.8-3.5c-2.5-10.6-7.2-20.5-13.7-29.2c-14.7-19.3-33.9-27.9-58.2-23.9c-14.4,2.3-23.5,11.1-27.7,24.5
			c-4.3,13.5-1.2,25.9,8.6,36.2c7.6,8,17,13.5,26.7,18.3c18,8.9,36.2,17.4,54.2,26.1c13.4,6.5,24.5,15.5,31.6,29
			c18,34.2,6.6,90-50.2,98.9c-20.1,3.2-39.7,1.1-57.5-9.6c-6.4-3.8-12-9-17.8-13.6c-1.7-1.4-3-3.2-5.5-5.8
			c-2.5,6.4-4.8,11.7-6.5,17.3c-2.1,6.9-1.9,7-9.8,6V794c0.3-0.2,0.7-0.3,1.1-0.4c7-0.5,7-0.5,8.6,6.3c4.3,17.4,10.3,33.8,22.3,47.7
			c21.8,25.2,62.3,23.5,79.6,9.8c24.5-19.3,24.8-54.1-0.1-70.9c-8-5.3-16.3-10.1-24.9-14.3c-15-7.4-30.4-14-45.4-21.4
			c-12.7-6.3-23.6-14.8-30.7-27.4c-11-19.8-13-40.3-2.1-60.5c10.6-19.7,28.1-29.4,50.4-30.4c16.3-0.7,31.8,1.8,45.1,11.8
			C994,648.1,998.4,652.4,1004.1,657.4z"/>
	</g>
</g>
</svg>
