<svg xmlns="http://www.w3.org/2000/svg" viewBox="0 0 1498.87 498"><defs><style>.cls-1{fill:#fff;}</style></defs><title>osg-logo</title><g id="Layer_2" data-name="Layer 2"><g id="Layer_1-2" data-name="Layer 1"><path class="cls-1" d="M400,0c6.35,3.35,8.18,8.67,8.1,15.69-.3,23.65-.11,47.31-.11,71,0,1.8,0,3.6,0,6h6.3q41.23,0,82.47,0c10.38,0,14.28,3.85,14.28,14.09q0,151.69,0,303.37c0,10.51-4,14.5-14.49,14.51q-78.22,0-156.43,0h-7.22v5.58c0,17.33-.23,34.66.11,52,.14,7-1.77,12.32-8,15.77H0Q0,334,0,170c3.62-1.33,7.22-3.74,10.87-3.81,18.62-.39,37.25-.18,55.88-.18h5.78c0-2.74,0-4.88,0-7,0-48.07.08-96.14-.09-144.21C72.41,7.85,74.55,2.85,81,0ZM309.85,424.68h-6.48q-56.73,0-113.46,0c-10.25,0-14.22-4-14.23-14.21q0-36.24,0-72.47c0-1.91,0-3.81,0-6H87.86c-11.67,0-15.32-3.59-15.32-15.13q0-60.73,0-121.46c0-2.09,0-4.17,0-6.28H20.31V474.91H309.85Zm178.08-22.93V115.57H408v6.23q0,98.21,0,196.41c0,9.51-4.23,13.76-13.68,13.78q-28,.05-56,0h-5.07v69.76ZM95.54,23V165.69h80.13V160q0-26,0-52c0-12,3.35-15.32,15.51-15.32H384.84V23ZM332.89,308.88h52V115.64H198.61V166H317.94c11.11,0,15,3.87,15,15q0,60.73,0,121.46ZM198.57,189V308.9H309.69V189Zm-23.11.1h-80V308.8h80ZM309.93,332.32H198.51v69.21H309.93Z"/><path class="cls-1" d="M731.92,420.85c-37.12-.17-72.16-7.88-103.31-29.06-39.37-26.77-61.8-64-67.66-111.2-3.72-30-1.8-59.54,8.84-88.15,10.57-28.41,29-50.68,53.43-68.23,32.92-23.69,70.15-32.88,110.21-32.51,26.79.25,52.85,4.43,77.32,15.61,52.14,23.83,84.65,63,92.29,120.83,4.33,32.73,2.34,65.09-10.79,95.74-21.46,50.11-60.11,80-112.76,91.83C764,419.19,747.9,420,732.06,422ZM613.19,255.6c0,5.16-.23,10.34,0,15.49,1.35,26.09,5,51.74,15.92,75.8,10.26,22.6,25.87,40.19,48.69,50.79,21.57,10,44.45,12.64,67.82,11,32.35-2.33,58.67-16.2,77.79-42.83,13.74-19.13,20.76-40.88,24.08-63.88,6-41.18,5.5-82.08-7.66-122-7.4-22.46-19.35-42.3-39.05-56-34.49-24-72.56-25.78-111.35-14-34.05,10.37-54,35.72-65.39,68.44C615.4,203.35,613,229.32,613.19,255.6Z"/><path class="cls-1" d="M1432,138.89l10-35.57h9.84V208.65h-10.55c-1.44-6.48-2.67-13.15-4.42-19.68-8.28-30.9-24.91-55.84-53-72.14-39.09-22.71-90.9-16.84-125,13.08-19.56,17.19-29.62,39.17-34.29,63.92-8.66,45.95-8.63,91.89,3.73,137.22,9.57,35.13,31.58,59.95,66.1,72.17,27.5,9.74,55,8.39,81.61-4.38,21.42-10.27,31.84-27.69,32.8-50.89a262.22,262.22,0,0,0-.8-32.44c-1.4-16.83-8.28-23.3-25.13-24.37-6.61-.42-13.27-.07-20.3-.07V279.74h136.24v10.53c-6.41.54-12.71.83-18.94,1.65-14.24,1.88-22,9.06-22.75,23.38-1.25,24.44-1.37,48.95-1.95,73.43-.05,2.13,0,4.26,0,6.83-23.4-2.82-44,5.66-64.85,13-41.69,14.62-84,18.27-125.74,1.94-53.8-21.06-86.75-60.73-96.49-118-7-41.28-1-81.08,19.16-118.16,30.21-55.64,76.9-83.51,140.51-82.68,39.94.52,73.65,14.89,100.91,44.18C1429.3,136.41,1429.93,136.94,1432,138.89Z"/><path class="cls-1" d="M1093.9,125.46c3.3-7.16,7-13.83,9.47-20.93,2.71-7.86,2.67-8.31,11.46-6.47v82.23c-1.67.1-3.29.08-4.88.32-3.84.59-5.55-1-6.52-4.79a108.21,108.21,0,0,0-18.6-39.53c-19.9-26.07-45.86-37.75-78.7-32.4-19.43,3.16-31.75,14.95-37.54,33.2s-1.65,35,11.62,49c10.23,10.79,22.95,18.27,36.1,24.78,24.33,12,48.94,23.5,73.38,35.33,18.13,8.77,33.19,21,42.71,39.18,24.32,46.32,8.88,121.73-67.86,133.8-27.21,4.28-53.68,1.45-77.77-12.94-8.63-5.16-16.21-12.12-24.13-18.44-2.29-1.83-4.06-4.31-7.38-7.91-3.32,8.64-6.54,15.85-8.85,23.34-2.89,9.34-2.56,9.44-13.2,8.11v-101a5.85,5.85,0,0,1,1.44-.52c9.5-.65,9.41-.62,11.66,8.59,5.75,23.51,14,45.79,30.17,64.53,29.46,34.15,84.24,31.73,107.65,13.29,33.19-26.16,33.53-73.23-.2-95.93a296.19,296.19,0,0,0-33.74-19.37c-20.28-10.06-41.1-19-61.42-29-17.17-8.46-31.93-20.06-41.48-37.1C932.36,188,929.75,160.27,944.4,133c14.31-26.61,38.08-39.77,68.15-41.13,22-1,43,2.44,61.08,16C1080.26,112.89,1086.22,118.77,1093.9,125.46Z"/></g></g></svg>