<?xml version="1.0" encoding="utf-8"?>
<!-- Generator: Adobe Illustrator 21.1.0, SVG Export Plug-In . SVG Version: 6.00 Build 0)  -->
<svg version="1.1" id="Layer_1" xmlns="http://www.w3.org/2000/svg" xmlns:xlink="http://www.w3.org/1999/xlink" x="0px" y="0px"
	 viewBox="0 0 1189 1188.3" style="enable-background:new 0 0 1189 1188.3;" xml:space="preserve">
<style type="text/css">
	.st0{fill:#FFFFFF;}
	.st1{fill:#333333;}
	.st2{font-family:'TrebuchetMS';}
	.st3{font-size:78.8186px;}
</style>
<title>RSlogo</title>
<g>
	<circle class="st0" cx="594.9" cy="594.2" r="594.2"/>
	<g id="Layer_2">
		<g id="Layer_1-2">
			<path class="st1" d="M390.3,670.9c29.7,0.4,53.5,24.8,53.1,54.4c0,0.2,0,0.5,0,0.7c-0.5,30-25.1,53.5-55.4,52.9
				c-29.8-0.6-54.1-26.1-52.5-57.3C336.9,693.6,361.2,670.4,390.3,670.9z M350,724.2c-0.4,21.7,17.3,40,38.9,40.3
				c21.3,0.3,39.3-17,39.9-38.4c0.7-21.7-16.9-40.2-38.5-40.5c-21.7-0.5-39.8,16.6-40.3,38.4C350,724,350,724.1,350,724.2L350,724.2
				z"/>
			<path class="st1" d="M517.4,694.4l-31.7,82.4h-2l-34.1-104.4c8.9-3.2,12.3,0.5,14.6,8.5c6.6,22.8,14.1,45.3,21.7,69.4l30.6-79.6
				h1.9l30.6,79.7c5.9-18.6,11.1-35.4,16.4-52.2c1.9-6,4.2-11.9,5.4-18c1.6-8,5.8-10.4,13.8-7.8l-34,104.4l-2,0.1L517.4,694.4z"/>
			<path class="st1" d="M149.1,644.9V539.8c13.5,0.9,26.7,0.6,39.3,3.1c15.8,3.1,24.8,14.3,26.8,30.3c2,15.8-2.5,29.2-17,37.9
				c-1.1,0.7-2.3,1.4-4,2.5l21.4,30.7c-7.8,2.4-13.4,1.5-17-5.7c-1.2-2.4-3.6-4.3-4.6-6.8c-6.4-15.6-18.6-16.8-33.9-13.2v26.3
				L149.1,644.9z M160.4,550.5v57.1c14.9,0.3,30.1,2.6,39.4-12c6.8-10.7,6.8-22.7-0.4-33.3C190,548.5,175.2,550.1,160.4,550.5
				L160.4,550.5z"/>
			<path class="st1" d="M742.5,644.4c-8.8,2.7-14.4,0.4-17.9-6.9c-1.1-2.2-3.2-3.9-4.1-6.1c-6.6-15.6-19-16.2-33.8-12.7v26.1H676
				V539.7c13.5,1,27,0.8,39.9,3.4c15.5,3.1,24.3,14.4,26.2,30c1.9,15.6-2.3,29.3-16.9,38c-1.2,0.7-2.3,1.4-4.2,2.6L742.5,644.4z
				 M687.1,550.5v57.1c14.9,0.3,30.1,2.7,39.6-11.9c6.7-10.4,6.8-22.2,0.1-32.6C717.4,548.5,702.3,550,687.1,550.5z"/>
			<path class="st1" d="M250.2,742.2v34c-10.5,2-10.7,1.8-10.7-7.3c0-29.3,0-58.5,0-87.8c0-2.4,0.2-4.8,0.4-7.7H250v57.5h56.3v-57.6
				h10.4v103.4h-10.1v-34.5L250.2,742.2z"/>
			<path class="st1" d="M937.7,541h9.4v106.9l-70.1-83v80.1h-9.4V538.4l70.1,83V541z"/>
			<path class="st1" d="M252.4,467.3h55.8v-58h10.6V513h-10.3v-34.8h-55.5v34.8l-10.3,0.5V409.3h9.9L252.4,467.3z"/>
			<path class="st1" d="M355.6,477.2v26.6h53.8l0.4,9.2h-65.3V409.3h62.7v8.9h-51.4v49.4h46.1l0.5,9.5L355.6,477.2z"/>
			<path class="st1" d="M636.2,541h10.5c0.2,2.3,0.5,4.6,0.5,6.9c0,20.8,0.1,41.5,0,62.3c-0.1,22.5-14.3,36.3-37.3,36.4
				c-23,0.1-37.5-13.6-37.7-36c-0.2-22.9,0-45.8,0-69.4h11c0,2.8,0,5.7,0,8.6c0,19.9-0.1,39.9,0,59.8c0.1,17.5,10,27.5,26.7,27.4
				c16.7-0.1,26.2-10.1,26.2-27.8C636.2,586.8,636.2,564.4,636.2,541z"/>
			<path class="st1" d="M240.5,644.9V540.6h23.8c10.4,0,20.8,0.3,31.1-0.1c6.7-0.2,9.3,1.8,6.7,9.8c-13.1,0-26.7,0-40.3,0
				c-11.1,0-11.1,0-11.1,11.1c0,12.5,0,25,0,38.2h46.5l0.5,9.8c-13,0-25.5,0.4-37.9-0.2c-7.2-0.3-9.9,2-9.2,9.2
				c0.5,5.3,0.1,10.8,0.1,17.3h54.7v9.3L240.5,644.9z"/>
			<path class="st1" d="M470.2,644.3L513,539.9h2.2l43.7,104.3c-8.1,3.1-12.8,0.7-14.5-7.1c-1.6-7.4-5.8-9.8-13.4-9.3
				c-10.9,0.8-21.8,0.8-32.7,0c-8.1-0.6-13,1.6-14.6,9.9C482.2,644.9,478,647.1,470.2,644.3z M513.9,561l-22.1,56.6h44.4L513.9,561z
				"/>
			<path class="st1" d="M804.5,540L848,644.2c-7.5,2.6-12.4,1.6-14.1-6.2c-1.7-8-6.3-10.8-14.6-10.1c-10.6,0.9-21.3,0.9-31.9,0
				c-8.3-0.7-12.9,1.9-14.6,10c-1.5,7.1-5.7,9.4-13.4,6.5l42.6-104.2L804.5,540z M803.3,561L781,617.8h44.5L803.3,561z"/>
			<path class="st1" d="M318.1,625.5l8.8-4.9c6.1,10.1,14.6,16.2,26.6,16.4c10.5,0.1,19.4-5.3,21.6-13c2.6-9.2-1.1-17.3-11.2-23
				c-7.4-4.1-15.3-7.3-22.7-11.3c-13.1-7.1-18.5-17.4-16-30c1.9-10.3,10.1-18.2,20.5-19.6c16-2.5,27.6,2.5,34.2,15.2l-7.7,4.9
				c-5.8-7.1-12.4-11.8-21.9-10.8c-6.5,0.7-11.6,3.2-13.8,9.7c-2.3,6.6-1.1,12.9,4.5,16.9s12.3,6.8,18.4,10.4
				c6.6,3.8,13.8,7.1,19.2,12.2c14.9,14,9.5,38.4-9.4,45.7C349.8,651.6,328.5,644.1,318.1,625.5z"/>
			<path class="st1" d="M149,757.1l8.7-4.5c7.2,12.2,17.9,17.9,32.1,15.6c7.9-1.3,14-5.3,16-13.3c1.9-7.9-0.7-14.8-7.4-19.4
				c-4.5-3-9.5-5.3-14.3-7.9c-6.4-3.5-13.5-6.3-19.2-10.8c-13.3-10.2-12.7-30.9,0.6-40.4c10.4-7.5,28.5-6.8,38.3,1.9
				c2.6,2.3,4.7,5.1,7.5,8.2l-9.7,6.5c-1.7-2.4-3.2-5.5-5.6-7.4c-6.8-5.4-14.5-6.2-22.3-2.3c-6.1,3.1-8.9,9-6.9,15.1
				c1.7,5,4.8,9.4,9.1,12.5c6.9,4.7,15.1,7.6,22.6,11.5c8.8,4.6,15.7,10.8,18.1,21c3.6,14.9-3.8,28.2-18.3,32.9
				C178.4,782.9,158.2,775.3,149,757.1z"/>
			<path class="st1" d="M440.6,645h-10.9v-94.5h-31.3c-3.1-7.8-0.8-10.2,6.4-10.1c20.2,0.3,40.4,0.3,60.6,0c6.9-0.1,9,2.3,6.4,9.7
				h-31.2V645z"/>
			<path class="st1" d="M1008.5,550.3v94.4h-10.8v-94.2h-31.3v-9.3h74.2l0.6,9.2L1008.5,550.3z"/>
			<path class="st1" d="M181.5,418.4h-32.3l-0.6-9h74.8v8.9H192v94.8l-10.5,0.5L181.5,418.4z"/>
			<path class="st1" d="M424.1,725.3c-0.1,19.4-15.6,34.5-35.1,34.3c-19.2-0.1-34.9-16.2-34.5-35.2c0.4-19.2,16.4-34.9,35.4-34.5
				C409.1,690.2,424.2,705.8,424.1,725.3z"/>
			<text transform="matrix(1 0 0 1 615.8247 728.7922)" class="st1 st2 st3">2017</text>
		</g>
	</g>
</g>
</svg>
