<svg xmlns="http://www.w3.org/2000/svg" viewBox="0 0 1189.03 492.5"><defs><style>.cls-1,.cls-2{fill:#fff;}.cls-2{font-size:105px;font-family:TrebuchetMS, Trebuchet MS;}</style></defs><title>RSlogo</title><g id="Layer_2" data-name="Layer 2"><g id="Layer_1-2" data-name="Layer 1"><path class="cls-1" d="M322.06,348.51A71.63,71.63,0,0,1,392.76,422c-.73,39.9-33.48,71.26-73.75,70.5-39.71-.75-72.05-34.74-70-76.31C250.9,378.69,283.2,347.74,322.06,348.51Zm-53.76,71c-.58,28.86,23,53.25,51.83,53.7,28.31.43,52.35-22.71,53.2-51.22.87-28.94-22.45-53.5-51.31-54A52.42,52.42,0,0,0,268.3,419.47Z"/><path class="cls-1" d="M491.29,379.81,449.11,489.62l-2.65,0L401,350.5c11.85-4.24,16.33.64,19.43,11.36,8.8,30.34,18.76,60.34,28.88,92.43l40.83-106,2.58,0,40.82,106.12c7.8-24.8,14.85-47.17,21.86-69.54,2.5-8,5.6-15.85,7.18-24,2.07-10.69,7.73-13.82,18.32-10.41L535.55,489.54l-2.65.09Z"/><path class="cls-1" d="M.68,313.83v-140c18,1.26,35.51.81,52.34,4.1C74.12,182,86.08,197,88.74,218.31c2.63,21.09-3.31,38.91-22.6,50.46-1.51.91-3,1.87-5.37,3.35l28.45,40.94c-10.42,3.17-17.86,2-22.66-7.59-1.61-3.21-4.77-5.72-6.11-9-8.49-20.8-24.78-22.34-45.11-17.6v35Zm15-125.75v76.09c19.81.4,40.07,3.47,52.52-16,9.09-14.23,9-30.26-.52-44.3C55.15,185.36,35.47,187.52,15.7,188.07Z"/><path class="cls-1" d="M791.26,313.19c-11.75,3.61-19.13.48-23.87-9.23-1.42-2.91-4.21-5.18-5.47-8.13-8.84-20.72-25.27-21.59-45-16.87v34.8H702.66V173.71c18.05,1.38,36,1.06,53.13,4.51,20.66,4.16,32.35,19.16,34.84,40s-3,39.07-22.5,50.57c-1.54.91-3,1.87-5.53,3.42ZM717.38,188.1v76.06c19.81.35,40.11,3.61,52.69-15.9,8.93-13.85,9-29.58.12-43.48C757.81,185.35,737.71,187.46,717.38,188.1Z"/><path class="cls-1" d="M135.34,443.48v45.33c-13.93,2.62-14.28,2.41-14.29-9.75q-.05-58.47,0-116.93c0-3.21.33-6.42.53-10.25H135.1v76.55h75.06V351.7H224V489.47H210.61v-46Z"/><path class="cls-1" d="M1051.27,175.36h12.53V317.8L970.37,207.21V313.86H957.84V172l93.43,110.55Z"/><path class="cls-1" d="M138.35,77.28h74.32V0h14.1V138.13H213V91.83h-74v46.4l-13.76.71V0h13.17Z"/><path class="cls-1" d="M275.74,90.41v35.46h71.71l.54,12.31H261V0h83.52V11.9H276V77.68h61.45l.64,12.72Z"/><path class="cls-1" d="M649.57,175.46h14c.23,3,.68,6.1.69,9.2.05,27.66.12,55.32,0,83-.12,30-19.07,48.42-49.65,48.53s-50-18.12-50.23-48c-.27-30.53-.06-61.06-.06-92.42H579c0,3.77,0,7.62,0,11.46,0,26.57-.15,53.14,0,79.71.17,23.31,13.32,36.6,35.55,36.45s34.84-13.45,34.91-37C649.64,236.47,649.57,206.64,649.57,175.46Z"/><path class="cls-1" d="M122.5,313.89v-139h31.66c13.83,0,27.67.38,41.48-.14,8.86-.33,12.39,2.46,8.88,13-17.48,0-35.55,0-53.63,0-14.79,0-14.8,0-14.81,14.8,0,16.64,0,33.28,0,50.92h62l.67,13c-17.34,0-34,.54-50.55-.21-9.65-.43-13.23,2.61-12.24,12.29.73,7.12.14,14.38.14,23H209v12.4Z"/><path class="cls-1" d="M428.42,313l57-139,2.89,0L546.49,313c-10.81,4.12-17.05.91-19.28-9.45-2.11-9.84-7.7-13.08-17.86-12.38a313.53,313.53,0,0,1-43.58,0c-10.77-.76-17.37,2.14-19.49,13.13C444.43,313.85,438.78,316.81,428.42,313Zm58.31-111-29.49,75.46h59.14Z"/><path class="cls-1" d="M873.79,174.12l58,138.75c-10,3.51-16.54,2.18-18.73-8.27-2.24-10.68-8.34-14.34-19.41-13.47a265.32,265.32,0,0,1-42.56,0c-11-.92-17.15,2.53-19.43,13.27-2,9.41-7.59,12.57-17.8,8.61l56.8-138.78ZM872.14,202l-29.62,75.75h59.33Z"/><path class="cls-1" d="M225.78,288l11.73-6.5c8.12,13.48,19.44,21.62,35.48,21.81,14,.16,25.82-7,28.76-17.33,3.48-12.27-1.41-23.07-14.94-30.65-9.8-5.5-20.32-9.71-30.22-15-17.44-9.41-24.58-23.21-21.37-40a32.17,32.17,0,0,1,27.26-26.09c21.33-3.3,36.73,3.37,45.54,20.22l-10.2,6.52c-7.75-9.43-16.56-15.77-29.14-14.45-8.69.91-15.39,4.28-18.39,12.92-3.06,8.8-1.51,17.17,6,22.57s16.44,9.08,24.55,13.83c8.73,5.12,18.37,9.41,25.6,16.2,19.79,18.59,12.67,51.14-12.54,60.87C268.11,322.8,239.71,312.75,225.78,288Z"/><path class="cls-1" d="M.55,463.35l11.61-6c9.56,16.3,23.86,23.81,42.77,20.77,10.49-1.69,18.71-7,21.36-17.7,2.59-10.47-.89-19.68-9.92-25.82-6-4.06-12.7-7-19.07-10.5-8.59-4.7-17.93-8.45-25.59-14.36C4,396.11,4.85,368.63,22.52,355.91c13.91-10,37.92-9,51,2.52,3.48,3.05,6.32,6.84,10,10.94L70.66,378c-2.31-3.18-4.21-7.39-7.42-9.92-9-7.13-19.32-8.32-29.7-3.09-8.17,4.12-11.83,12-9.25,20.13A33.65,33.65,0,0,0,36.43,401.8c9.23,6.27,20.07,10.15,30.06,15.35,11.68,6.08,20.92,14.36,24.17,27.94,4.73,19.79-5,37.52-24.37,43.88C39.71,497.7,12.81,487.51.55,463.35Z"/><path class="cls-1" d="M389,314H374.43V188.13H332.77c-4.1-10.39-1.09-13.53,8.54-13.39q40.38.59,80.76,0c9.15-.14,11.95,3,8.56,12.92H389Z"/><path class="cls-1" d="M1145.6,187.78V313.53h-14.45V188h-41.75V175.55h98.89l.74,12.22Z"/><path class="cls-1" d="M43.81,12.12H.8L0,.12H99.71V11.93H57.79V138.24l-14,.73Z"/><path class="cls-1" d="M367,421c-.15,25.8-20.75,45.94-46.8,45.76-25.54-.17-46.49-21.53-46-46.88.52-25.56,21.9-46.45,47.13-46C347.08,374.24,367.15,395,367,421Z"/><text class="cls-2" transform="translate(622.45 425.59)">2017</text></g></g></svg>