<?xml version="1.0" encoding="utf-8"?>
<!-- Generator: Adobe Illustrator 21.1.0, SVG Export Plug-In . SVG Version: 6.00 Build 0)  -->
<svg version="1.1" id="Layer_1" xmlns="http://www.w3.org/2000/svg" xmlns:xlink="http://www.w3.org/1999/xlink" x="0px" y="0px"
	 viewBox="0 0 1028.3 1028.3" style="enable-background:new 0 0 1028.3 1028.3;" xml:space="preserve">
<style type="text/css">
	.st0{fill:#FFFFFF;}
	.st1{clip-path:url(#SVGID_2_);}
	.st2{fill:#333333;}
</style>
<title>SCBWlogo</title>
<g>
	<circle class="st0" cx="514.2" cy="514.2" r="514.2"/>
	<g id="Layer_2">
		<g id="Layer_1-2">
			<g>
				<defs>
					<rect id="SVGID_1_" x="130.5" y="296.9" width="767.3" height="434.6"/>
				</defs>
				<clipPath id="SVGID_2_">
					<use xlink:href="#SVGID_1_"  style="overflow:visible;"/>
				</clipPath>
				<g class="st1">
					<path class="st2" d="M597.8,795.4v136H131.1v-136H597.8z M406.8,870.3c-0.4-0.4-0.7-0.8-1.1-1.3c-3.9-9.5-7.8-19.1-11.7-28.6
						c-1.7-4.3-2.3-4.5-7.5-2.9l20.1,47.7l12.5-35.4l12.5,35.4L452,837c-6.1-0.6-6.1-0.6-8.1,4.4c-3.8,9.5-7.7,19-11.5,28.5h-1
						L419,834.9L406.8,870.3z M364.6,884.6c13.7-0.1,25.1-11.2,25-24.4c0-13.7-11.7-24.9-25.6-24.6c-13.8,0.2-24.9,11.5-24.9,25.1
						C339.2,873.6,351,884.7,364.6,884.6L364.6,884.6z M483.9,883.1v-34l34.1,35.8v-47.9h-5.2v33.9l-0.9,0.5l-33.3-36.2v47.9
						L483.9,883.1z M234.1,882.8c-2.9-3.7-5.6-7.2-8.5-10.6c-2.8-3.4-5.7-6.7-8.9-10.4c1.8-0.2,3-0.2,4.1-0.5
						c6.2-1.1,9.3-5,9.4-11.5c0.1-6.8-3.2-11.9-9.1-12.6c-5.6-0.6-11.3-0.1-16.9-0.1v46h5.4v-22.2c5.4,6.9,10.4,12.6,14.6,18.8
						C226.8,883.3,229.7,883.9,234.1,882.8L234.1,882.8z M336,883.1V837h-5.6v17.6h-24.9V837h-5.4v46h5.6v-22.5h24.9v22.6L336,883.1
						z M242.6,860.7h18.8v-5.4h-18.8v-13.6h18.8V837h-24.4v46h24.4v-5h-18.9L242.6,860.7z M524.1,873.5c2.3,7.6,7.6,11.4,15.1,11
						c7.5-0.3,12.9-4.7,14.1-11.4c1.2-6.9-1.9-12-9.3-15.5c-3.1-1.3-6.1-2.8-9-4.4c-4-2.4-4.9-6.8-2.4-10.2
						c2.5-3.4,7.9-3.7,11.2-0.6c1,0.9,1.8,1.9,2.9,3.1l4.2-2.9c-3.5-6-8.7-8.2-15.5-6.8c-5.5,1.1-9.3,5-9.8,9.9
						c-0.6,6.1,2.1,10.7,8.3,13.6c2.9,1.4,6,2.5,8.8,4c4.1,2.2,5.7,5.4,5.1,9c-0.7,3.8-3.1,6.3-7.2,7.1c-3.9,1-7.9-0.8-9.8-4.3
						c-0.7-1.2-1.3-2.6-2-4L524.1,873.5z M181,883.1h5.7v-41h12.8V837h-31.6v5.4H181V883.1z M295.7,842.1v-5.2H264v5.2h13.1V883h5.8
						v-40.9H295.7z M204.4,898.4c0.1-3.7-2.8-6.8-6.5-6.9c-3.7-0.1-6.8,2.8-6.9,6.5c-0.1,3.7,2.7,6.7,6.4,6.9c3.6,0.3,6.8-2.4,7-6.1
						C204.4,898.6,204.4,898.5,204.4,898.4z M255.7,904.8c3.6-0.1,6.5-2.9,6.6-6.6c0-3.6-2.9-6.6-6.5-6.7c-0.1,0-0.2,0-0.3,0
						c-3.7,0-6.6,2.9-6.7,6.5c0,3.7,2.9,6.6,6.5,6.7C255.4,904.9,255.6,904.9,255.7,904.8L255.7,904.8z M266,892v12.3h0.7l0.3-5.4
						l5.3,6l0.8-0.7l-3.6-5l1,0.2c0.6-1.7,2-3.7,1.6-5.2C271.4,890.7,268.4,892.1,266,892z M232.4,902.1c-3.6,1.4-6.7,2.2-8.5-0.9
						c-0.8-1.8-0.9-4,0-5.8c1.8-3.4,5-2.6,8.7-0.8c-2.1-3.6-4.5-3.3-6.9-2.6c-2.9,0.9-4.4,3.2-4.5,6.2c-0.2,3,1.8,5.7,4.7,6.4
						C228.1,905.2,230.4,905.2,232.4,902.1L232.4,902.1z M275.7,901.6l-0.9,1.5c1.6,0.6,3.3,1.8,4.7,1.6c1.2-0.1,2.9-2,2.9-3.1
						c0-1.4-1.4-2.8-2.3-4.1c-0.3-0.4-1.3-0.4-1.6-0.7c-0.6-0.8-1.1-1.7-1.5-2.6c1-0.2,2-0.5,3.1-0.6c0.5,0,1,0.1,1.4,0.3l0.3-1.2
						c-1.3-0.3-2.8-1-4-0.7c-0.9,0.2-2.4,1.6-2.3,2.3c0.2,1.4,1.2,2.7,2.1,3.8c0.5,0.6,1.8,0.6,2.2,1.2c0.6,0.9,0.6,2.1,0.9,3.2
						c-1.1,0.2-2.2,0.7-3.3,0.6C276.9,903,276.3,902.1,275.7,901.6L275.7,901.6z M187.3,894l0.6-1c-1.1-0.5-2.4-1.4-3.4-1.3
						s-2.6,1.2-2.9,2.2c-0.3,1,0.4,2.6,1.2,3.5c0.8,0.9,2.4,1,3.1,1.9c0.6,0.7,0.6,2.1,0.8,3.2c-1.1,0.2-2.2,0.6-3.3,0.5
						c-0.7-0.1-1.3-0.9-2-1.4l-0.7,1.4c1.6,0.6,3.2,1.8,4.7,1.6c1.2-0.1,3-1.9,3-2.9c-0.1-1.5-1.4-3-2.5-4.3c-0.4-0.5-1.5-0.5-1.9-1
						c-0.4-0.8-0.8-1.6-0.9-2.5c0.8-0.3,1.6-0.5,2.5-0.7C186.2,893.2,186.8,893.8,187.3,894z M243.2,894v10.4h1v-10.3l3.7-1.2
						l-0.1-0.6h-8.1l-0.1,0.7L243.2,894z M208.9,902.8v-10.7l-1,0.1v12.5l5.8-0.4l-0.1-0.9L208.9,902.8z M235.7,904.3h0.8v-12.2
						h-0.8V904.3z M217.6,892.2h-0.7v12h0.7V892.2z"/>
					<path class="st2" d="M242.6,687.2l16.6-110.4h29.4c-1.1,6.4-2.2,12.4-3.3,18.5c-7.9,43.3-15.8,86.7-23.7,130.1
						c-0.4,2.5-1.3,3.3-3.8,3.2c-10.3-0.1-20.6-0.1-31.2-0.1l-16.8-108.8h-0.6c-1.3,8.1-2.5,16.1-3.7,24.2
						c-4.2,27.4-8.4,54.7-12.8,82.1c-0.1,1-1.7,2.4-2.7,2.4c-9.8,0.2-19.6,0.1-29.5,0.1c-2.1,0-2.6-0.9-3-2.8
						c-5.1-28.5-10.3-56.9-15.6-85.4c-3.6-19.8-7.2-39.6-10.9-59.4c-0.2-1.3-0.4-2.7-0.6-4.2H160l16.6,110.6h0.6l17.6-110.7h29.5
						l17.6,110.4L242.6,687.2z"/>
					<path class="st2" d="M522.1,558.2h-27.9V406.4c11.3,0,22.3-0.1,33.4,0.1c1,0,2.3,1.9,2.8,3.2c10.1,28.3,20.2,56.5,30.3,84.8
						c1.6,4.9,3.6,9.6,5.8,14.3V406.6h27.9v151.8h-8.8c-7.3,0-14.7-0.2-22,0.1c-3.1,0.1-4.2-1-5.2-3.8
						c-11.4-32.6-22.8-65.1-34.3-97.6c-0.4-1.3-1.1-2.4-2-3.4L522.1,558.2z"/>
					<path class="st2" d="M131,557.9v-151c0.4-0.2,0.6-0.4,0.8-0.4c19.9,0.2,39.8-0.1,59.6,0.7c11.8,0.5,22.7,4.8,28.6,16
						c7.1,13.6,7.3,27.7,0.2,41.5c-2.9,5.6-7.6,9.4-13.4,11.8c-1.2,0.5-2.4,1.1-3.4,1.5c3.8,1.6,8,2.8,11.5,4.9
						c8.7,5.1,12.8,13.3,14.2,22.9c1.5,8.9,0.7,18-2.3,26.5c-5.9,16.3-18.6,24.2-35,25.2c-19.9,1.1-40,0.6-60,0.8
						C131.7,558.3,131.5,558.1,131,557.9z M161.6,535.3c6,0,11.8,0.4,17.4-0.1c10.3-0.9,16.7-6.4,18-15.7c0.6-5.1,0.4-10.4-0.5-15.5
						c-1.1-6.5-5.5-11.2-11.9-12.4c-7.5-1.4-15.1-1.5-23-2.2L161.6,535.3z M161.6,469.4c7.1-0.7,13.8-1,20.4-2.2
						c6.1-1.1,10.4-5.1,11.5-11.3c0.7-4.5,0.7-9.1,0.2-13.6c-0.7-6.5-4.9-10.8-11.2-11.9c-6.8-1.1-13.7-1.1-20.8-1.5L161.6,469.4z"
						/>
					<path class="st2" d="M475.1,653.2c0.4,0.4,0.6,0.6,0.7,0.7c14.4,2.3,19,10.7,20.5,23.2c1.1,8.5,1.1,17.1,1.6,25.6
						c0.3,5,0.3,10,1.3,14.8c0.8,3.7,3,7,4.7,10.7c-0.7,0.1-1.4,0.2-2.1,0.3c-9.2,0-18.4-0.1-27.6,0.1c-2.6,0.1-4.2-0.9-4.6-3.2
						c-1-4.7-1.8-9.5-2.2-14.3c-0.5-9.6-0.5-19.1-0.9-28.7c-0.5-12.3-6.6-18.1-18.8-18.1h-15.2v63.9H402V576.7
						c1.1-0.1,2.2-0.2,3.3-0.2c17.5,0,35.1-0.1,52.6,0.1c5,0.1,9.9,0.6,14.8,1.8c13.5,3.1,21.9,11.7,24.9,25.3
						c2.2,10.2,1.9,20.5-1.6,30.5c-3.2,9-9.4,15-18.4,18.1C476.8,652.5,476,652.8,475.1,653.2z M432.8,599.6v43.2
						c5.7,0,11.2,0.3,16.6-0.1c9.8-0.7,15.9-5.7,17.8-14.2c0.8-3.6,1-7.4,0.8-11.1c-0.7-10.6-6.6-16.9-16.6-17.7
						C445.3,599.2,439.2,599.6,432.8,599.6z"/>
					<path class="st2" d="M511.7,576.7h30.4V636l0.8,0.2c0.9-1.3,1.8-2.5,2.6-3.8c11.3-17.8,22.7-35.6,34.1-53.4
						c0.6-1,1.9-2.3,2.9-2.3c10.4-0.2,20.8-0.1,31.7-0.1c-0.7,1.4-1.2,2.4-1.8,3.3c-12.3,19.4-24.5,38.9-37,58.2
						c-1.7,2.6-1.9,4.5-0.4,7.3c14,26.2,27.9,52.4,41.8,78.6c0.7,1.3,1.3,2.6,2.2,4.5c-9,0-17.5-0.5-26,0.2
						c-6.6,0.5-9.7-1.8-12.5-7.7c-8-17.2-16.9-34-25.4-51c-0.5-1-1-1.9-1.8-3.5c-3.7,5.8-7.3,11.1-10.6,16.5
						c-0.6,0.9-0.4,2.4-0.4,3.6c0,12.4,0,24.9,0,37.3c0,1.4,0,2.7,0,4.3h-30.5V576.7z"/>
					<path class="st2" d="M393.4,652.7c-1.3,13.4-1.8,27-4.2,40.3c-5.6,30-24.3,39.2-51.4,38.3c-6.9-0.2-13.8-1.6-20.3-3.9
						c-14.5-5.2-21.2-17.2-24.6-31.4c-4.1-17.2-4-34.7-3.7-52.2c0.2-12.6,0.9-25.1,4.4-37.2c5.7-20.2,18.5-31.1,39.5-32.2
						c8.6-0.5,17.3,0.1,25.8,1.8c14.4,3.1,23.2,13,27.9,26.9c3.8,11.3,4.9,23,5.3,34.8c0.1,5,0,9.9,0,14.9L393.4,652.7z
						 M362.4,653.6l-1.1,0c0-7.1,0.3-14.2-0.1-21.2c-0.4-8.7-0.9-17.4-4.3-25.5c-2.9-7-8.2-10.2-15.7-10.3
						c-7.7-0.1-13.7,2.7-16.5,10.2c-1.7,4.7-3.3,9.8-3.5,14.7c-0.6,19-0.9,37.9-0.6,56.9c0.1,6.3,1.6,12.8,3.6,18.9
						c2.7,8.6,8.1,11.7,17.3,11.5c8.1-0.1,13.2-3.9,16.1-11.9c0.8-2,1.3-4,1.6-6.1C360.4,678.3,361.4,665.9,362.4,653.6L362.4,653.6
						z"/>
					<path class="st2" d="M238.4,406.6H269c0,1.6,0,3,0,4.4c0,34.8,0,69.6,0.2,104.5c0.1,4.2,0.8,8.4,2.1,12.4
						c2.2,7.3,7.6,10.7,15.7,10.6c8.1,0,13.6-3.5,15.5-10.8c1.4-5.6,2.2-11.5,2.2-17.3c0.2-33.1,0.1-66.2,0.1-99.2
						c0-1.4,0-2.9,0-4.5H335c0.1,1.1,0.2,2.1,0.2,3.1c0,35.2,0.2,70.4-0.1,105.6c-0.1,6.3-1.2,12.6-3.1,18.7
						c-4.3,13.5-14,21.7-27.6,25.3c-11,2.8-22.5,3-33.6,0.6c-18.5-3.7-29.3-15.8-31.6-34.8c-0.5-4.2-0.8-8.4-0.7-12.6
						c-0.1-33.7-0.1-67.4,0-101.1C238.4,409.7,238.4,408.3,238.4,406.6z"/>
					<path class="st2" d="M790.7,448.5h-28.8c-0.4-3-0.7-6.1-1.2-9.1c-1.8-9.7-7.9-14-18.7-13.1c-8.6,0.7-13.6,6.6-14.2,15.8
						c-0.6,10.1,3.8,16.8,12.9,20.8c10.6,4.6,21.2,9.2,31.6,14.1c3.3,1.6,6.4,3.4,9.2,5.6c7.6,5.5,12.8,12.8,13.4,22.2
						c0.5,7.6,0.8,15.5-0.5,22.9c-3.1,17.1-14.3,27.1-30.8,31.1c-12.5,3.1-25.5,3.3-38.1,0.5c-19.2-4.4-29.2-16.2-30.5-36.1
						c-0.3-4,0-8.1,0-12.3c0.5-0.1,1-0.2,1.6-0.2c9.4,0,18.9,0,28.6,0c0.3,4,0.4,7.9,0.9,11.8c1.5,11.4,8.6,16.6,21.1,15.8
						c10-0.6,16.3-7.8,16.5-18.4c0.2-8.8-3.3-15.4-11.1-19.1s-15.9-6.3-23.7-9.8c-5.5-2.3-10.7-5.1-15.7-8.4
						c-8.7-5.8-13.8-14.1-15.4-24.5c-1.3-8.1-1.1-16.4,0.8-24.4c3.3-13.7,11.6-23,24.9-27.3c14.2-4.7,29.5-4.5,43.6,0.6
						C783.7,413,792.6,427.7,790.7,448.5z"/>
					<path class="st2" d="M863.6,448.4c-0.5-3.3-0.7-6.7-1.5-9.9c-1.9-8.6-7.4-12.5-16.9-12.2c-8.9,0.3-13.9,4.6-15.4,13.2
						c-1.9,11.2,1.9,18.7,12.5,23.4c10.7,4.9,21.6,9.3,32.3,14.4c9.4,4.5,17.9,10.7,20.6,21.3c4.7,18.3,3.9,35.9-10.4,50.3
						c-6.9,6.9-16,9.8-25.5,11.2c-11.9,1.8-23.8,1.7-35.4-1.6c-15.6-4.4-24.1-15-26.5-30.7c-0.8-5.5-0.8-11.1-1.2-16.9h30.5
						c0.6,4.9,0.7,9.7,1.8,14.4c2,9.4,8.7,13.6,20,13.1c9-0.4,15.4-6.1,16.7-14.6c1.7-11-2.1-18.8-12.3-23.8
						c-5.9-2.9-12.2-4.9-18.3-7.2c-8.8-3.3-17.3-7.1-24.2-13.6c-11-10.4-12.9-23.8-11.3-37.8c2.6-22.9,16-35.4,39.1-37.5
						c8.5-0.9,17.2-0.3,25.5,1.7c17.4,4.2,27.5,16.1,28.9,34c0.2,2.8,0,5.7,0,8.9L863.6,448.4z"/>
					<path class="st2" d="M438.2,448.7h-29c-0.5-3.5-0.7-6.8-1.5-10c-1.9-8.6-7.2-12.5-16.4-12.3c-9.2,0.2-14.3,4.3-15.9,13
						c-2,11,1.7,18.6,11.9,23.4c8.7,4,17.5,7.6,26.3,11.5c3.5,1.6,7,3.3,10.3,5.2c11.8,6.6,18.5,16.5,19.1,30.3
						c0.6,14.5-1.2,28.1-12.2,38.8c-6.2,6-13.8,9.2-22.1,10.8c-13.1,2.6-26.2,2.7-39.1-0.8c-15.8-4.3-24.3-15.1-26.6-31
						c-0.7-5.4-0.7-10.9-1.1-16.6h30.7c0.3,3.7,0.5,7.5,0.9,11.3c1.2,11.3,8.2,16.7,20.8,16.2c9.9-0.4,16.5-7.5,16.9-17.8
						c0.3-9-3.1-15.9-11.2-19.8c-6.3-3.1-13.2-5.1-19.6-8.1c-7.1-3.3-14.3-6.5-20.8-10.7c-8.6-5.6-13.2-14.3-14.6-24.5
						c-1.7-12.5-0.9-24.6,5.9-35.7c5.8-9.5,14.8-14.6,25.3-16.9c11.2-2.5,22.9-2.2,34,0.7c17.1,4.5,26.8,16.5,28,34.3
						C438.4,442.8,438.2,445.5,438.2,448.7z"/>
					<path class="st2" d="M706.9,618.8h-28.9c-0.6-3.6-0.9-7.2-1.7-10.6c-2.2-8.9-7.9-12.5-17.9-11.7c-8.4,0.7-13.3,5.5-14.3,13.9
						c-1.4,11.5,2.3,18.1,12.9,22.9c11.1,5,22.5,9.4,33.3,15c17,8.8,22.7,20,21.6,40.4c-0.7,12.3-4.2,23.5-14.1,31.7
						c-7.2,6-15.8,8.7-24.9,10c-11.6,1.6-23,1.6-34.3-1.6c-16-4.5-25.7-16.2-27.1-32.7c-0.4-4.9-0.6-9.8-0.8-15h30.7
						c0.4,4.5,0.4,9,1.3,13.3c2.2,10.8,9.3,15.2,21.6,14.1c9.1-0.8,15.4-7.9,15.7-17.8c0.3-8.9-3.1-15.9-11.3-19.7
						c-6.8-3.2-14-5.7-21-8.6c-3.6-1.5-7.2-2.8-10.6-4.6c-18.1-9.3-25.4-22.3-23.8-44.7c1.2-16.3,8-29.4,24-35.4
						c7.1-2.5,14.6-3.9,22.2-4c7.6,0,15.1,1,22.3,3.2c15.4,4.5,24.2,16.6,25.1,32.5C707.1,612.5,706.9,615.5,706.9,618.8z"/>
					<path class="st2" d="M607.3,406.6h84.6v25h-53.7v35.7h50.5v25.3h-50.5v40.4H694v25.2h-86.7V406.6z"/>
					<path class="st2" d="M481.8,558.2h-30.4V406.6h30.4V558.2z"/>
					<path class="st2" d="M816,600.9c-1.2,5.7-1.8,10.9-3.4,15.8c-2.1,6.6-7.6,10.2-14.4,10.4c-7.3,0.2-12.7-2.8-15.4-9.5
						c-4.3-10.3-4.3-22,0.1-32.3c2.6-6.3,7.7-9.3,14.4-9.3c6.9,0,12.3,2.9,14.6,9.4C813.9,590.5,814.8,595.9,816,600.9z M791,601.5
						c0.5,4,0.8,7.8,1.5,11.6c0.5,2.5,1.9,4.8,4.9,4.8c3.2,0,4.8-2.2,5.4-5.2c1.6-7.5,1.5-15.3-0.1-22.9c-0.6-2.7-2.1-4.5-5-4.5
						c-3-0.1-4.4,1.8-4.9,4.2C792,593.5,791.5,597.6,791,601.5L791,601.5z"/>
					<path class="st2" d="M130.5,360.5h5.8c0.1,2.4,0.1,4.7,0.4,7c1.2,10.9,9.2,18,20.2,17.7c11.4-0.3,19.8-8.3,20.3-19.2
						c0.4-9-2.8-14.3-11-17.9c-5.9-2.6-12.1-4.4-18.1-6.7c-12.6-4.8-17.5-14-14.8-27.2c2.3-10.7,12.1-17.7,24.2-17.2
						c15.4,0.7,23.6,9.2,22.9,24.3h-5.1c-0.1-1.3-0.2-2.3-0.3-3.4c-0.7-10.4-7.8-16.8-18.3-16.4c-13.6,0.4-21,9.8-18.2,23
						c1.2,5.9,5,9.6,10.4,11.7c5.6,2.1,11.2,4,16.8,6c17.2,6.3,22.6,24.4,11.5,38.5c-5.1,6.4-12.2,8.6-20.1,9
						c-12.4,0.5-21.7-5.1-24.8-15.5C131.1,370,131.1,365.4,130.5,360.5z"/>
					<path class="st2" d="M755,616.4h18.9v9.5h-33c-0.5-5.5-0.9-10.3,4.5-14.2c5.2-3.9,9.7-8.9,13.9-13.9c1.8-2.2,2.5-5.6,2.8-8.5
						c0.1-1.2-1.8-3.4-3.2-3.7c-1.4-0.3-4.3,0.7-4.6,1.8c-1.1,3.8-3.7,3.6-6.6,3.5c-6.8-0.2-7.7-1.6-4.2-7.8
						c3-5.5,10.3-8.3,18.3-6.9c8.9,1.5,13.5,7.2,12.1,15.9c-0.6,3.4-2,6.6-4.1,9.4c-3.3,4.3-7.5,7.9-11.3,11.8
						C757.7,614,756.7,614.8,755,616.4z"/>
					<path class="st2" d="M426.3,324.1h-5.2c-0.5-2.5-0.7-5.1-1.4-7.6c-2.2-8.9-8-14-16.5-14.9c-8.9-0.9-16.5,2.8-20,11.1
						c-2.5,5.9-4.1,12.2-4.8,18.6c-1.4,12.6-1.3,25.4,2.4,37.7c2.2,7.2,6,13.1,13.8,15.4c9.5,2.7,18.1-1.1,22.8-10.1
						c1.3-2.6,2.3-5.2,3.1-8c0.7-2.6,1.1-5.3,1.7-8.3h4.5c3.3,15.9-11.7,32.6-28.2,31.6c-10.6-0.6-17.6-6-21.5-15.7
						c-4.5-11.1-5.3-22.8-4.5-34.4c0.5-8.2,1.6-16.7,4.1-24.5c4.8-14.6,17.4-20.9,31.8-17.1c10.5,2.8,15.2,10.4,17.2,20.4
						C426,320.1,426.1,322,426.3,324.1z"/>
					<path class="st2" d="M521.7,384.1c-0.7,1.6-1,3.7-1.9,4.1c-2.7,1-5.9,1.4-7.7-1.5c-1.2-1.9-1.7-4.3-2.5-6.6
						c-4.6,7.9-11.9,10.9-20.7,8.9c-3.6-0.9-6.7-2.9-9-5.8c-8.3-11.4-2.5-26.7,10.9-30.4c4.3-1.2,8.6-2.2,12.9-3.5
						c5.1-1.4,6.4-3.3,6.5-8.5c0-0.5,0-1,0-1.5c0.5-12.7-8-15.8-18.2-13c-5.1,1.4-7.1,5.5-8,10.2c-0.3,1.4-0.4,2.9-0.6,4.6h-4.2
						c-2-8.8,3.9-18.2,12.9-19.7c3.7-0.6,7.4-0.6,11.1,0.1c8.1,1.4,12,6.7,12.1,15.8c0.1,13.8,0,27.6,0,41.4
						C515.2,383.9,516,384.7,521.7,384.1z M510.5,351.2c-3.1,1.2-5.4,2.1-7.7,2.8c-3.8,1.1-7.7,2-11.4,3.2c-4.6,1.4-8.1,4.1-8.9,9
						c-1,5.8-1.3,11.7,3.6,16.3c1.2,1,2.7,1.8,4.2,2.1c8.9,2.2,17-2.8,18.7-12.3C510.2,365.5,510,358.4,510.5,351.2z"/>
					<path class="st2" d="M310.1,387.8h-4.8v-89.1h4.6v31.7l1.1,0.9c0.2-0.7,0.4-1.3,0.7-1.9c4.7-7.4,11.6-9.3,19.7-8
						c6.8,1.2,11.6,6.3,11.8,14.3c0.4,17.3,0.1,34.5,0.1,52h-5v-4c0-14.2,0-28.4,0-42.5c0-1.2,0-2.5-0.1-3.7
						c-0.5-6.2-3.1-10-7.9-11.4c-5.8-1.8-11.9-0.1-15.5,4.4c-3.6,4.5-4.8,9.8-4.8,15.3c-0.1,12.6,0,25.1,0,37.7L310.1,387.8z"/>
					<path class="st2" d="M429.5,353c0.7-4.7,1.3-11.3,3-17.6c2.7-10,9.4-14.3,20-14.3c9.7,0,15.9,4.5,18.8,14.3
						c3.8,12.8,3.8,26.5,0.1,39.3c-4.1,14.2-20.6,19.7-32,11.2c-5.6-4.2-7.5-10.4-8.5-16.9C430.2,364.4,430.1,359.6,429.5,353z
						 M469.1,355.3c-1-6.3-1.5-12.7-3.1-18.7c-2-7.7-6.9-11.1-13.9-11.2c-7.1-0.1-12.2,3.4-14.4,11.1c-3.6,12.4-3.5,25.5,0.1,37.8
						c2.1,7.2,7.5,11.1,14.2,10.9c6.8-0.1,12-3.8,13.9-11.2C467.5,368,468.1,361.6,469.1,355.3L469.1,355.3z"/>
					<path class="st2" d="M231.3,355.6c-1.2,6.7-1.7,13.7-3.7,20.2c-2.8,9.4-9.8,13.9-19.7,13.8c-9.3-0.1-15.9-4.7-18.7-14.1
						c-3.9-13.2-3.9-27.2-0.1-40.3c2.9-10,9.7-14.2,20.9-14.1c9,0.1,15.2,4.7,17.8,14.4C229.7,341.9,230.2,348.7,231.3,355.6z
						 M225.7,354.4c-0.9-5.7-1.5-12.2-3.2-18.3c-2.1-7.4-7.1-10.7-13.9-10.7c-7,0-12,3.5-14.2,10.9c-3.6,12.5-3.6,25.7,0,38.2
						c1.5,5.1,4.7,9,10.3,10.2c9.1,2,16.1-2.4,18.4-12.2C224.5,366.8,224.8,361,225.7,354.4z"/>
					<path class="st0" d="M854.6,626.1l16.8-38.4h-20.8c0-3.1-0.1-5.8,0.1-8.4c0.1-0.7,1.4-1.8,2.1-1.8c9.9-0.1,19.8-0.1,30.8-0.1
						c-0.6,4.7-0.5,9.3-1.9,13.3c-3.8,10.7-8.3,21.2-12.4,31.9c-1,2.7-2.4,4-5.5,3.6C861,625.9,858.2,626.1,854.6,626.1z"/>
					<path class="st2" d="M520.5,367h4c0.4,2.8,0.5,5.5,1.1,8.1c1.5,6.7,6.3,10.1,13.7,10.2c6.6,0,11.7-3.6,13.1-9.4
						c1.9-7.6-0.4-13.3-6.7-16.4c-4.5-2.1-9.2-3.7-13.7-5.8c-8.8-4-12-10.5-10.2-20c1.2-6.1,4.7-10.3,10.6-11.6
						c4-0.9,8.1-1.1,12.1-0.6c8.6,1.5,12.8,8.9,11.4,19.3h-4.1c-0.3-2.4-0.5-4.7-1-7c-1.2-5.5-5.3-8.4-11.5-8.4s-10.9,3.1-12.2,8.4
						c-1.8,7.2,1,12.9,7.8,15.8c3.7,1.6,7.4,2.9,11.1,4.3c9.5,3.6,13.6,10.5,12.3,20.4c-1.2,8.5-7.8,14.4-17.2,15.3
						C527.1,390.9,517.7,380.8,520.5,367z"/>
					<path class="st2" d="M234.3,322.8h5c0,1.5,0,3,0,4.4c0,13.8,0,27.6,0,41.4c0,1.9,0.1,3.7,0.4,5.6c0.7,5,2.8,9.1,8.1,10.4
						c5.8,1.5,10.9,0.4,14.9-4.3c3.6-4.2,5-9.3,5-14.9c0-12.8,0-25.6,0-38.4c0-1.3,0-2.7,0-4.2h4.9v65h-4.7l-0.4-8.6
						c-4.5,7.9-10.8,11.1-19,10.2c-8.1-0.9-13.4-5.9-13.7-14.1c-0.5-14-0.3-28.1-0.4-42.1C234.2,329.8,234.3,326.3,234.3,322.8z"/>
					<path class="st2" d="M841.7,625.9h-10.8v-35.3l-10.2,5.7c0-3.7-0.1-6.7,0.1-9.6c0.1-0.8,1.1-1.8,2-2.3c1.8-1.1,4.1-1.7,5.4-3.2
						c3.6-4.4,8.3-4.3,13.5-3.6L841.7,625.9z"/>
					<path class="st2" d="M581.8,322.5v4.2h-10.6c-0.1,1.6-0.2,2.9-0.2,4.2c0,14,0,28.1,0,42.1c0,11.2,0.4,11.5,11.3,11
						c0.9,2.6,0.6,4.2-2.8,4.6c-9.6,1.1-13.4-2-13.4-11.8c0-15.2,0-30.3,0-45.5c0-1.4,0-2.7,0-4.4h-8.7l-0.3-4.2h8.9v-19.3h5v19.1
						H581.8z"/>
					<path class="st2" d="M290.9,322.6h10.6l0.3,4.1h-10.7c-0.1,1.5-0.2,2.6-0.2,3.7c0,14.9,0,29.8,0,44.8c0,8.5,1.4,9.8,9.8,8.8
						c0.5,0,1.1,0,1.6,0v4.5c-3.3,0-6.6,0.3-9.8-0.1c-3.9-0.5-6.3-3.6-6.4-8.4c-0.2-9.8-0.1-19.6-0.2-29.5c0-7.7,0-15.4,0-23.5
						l-8.7-0.4v-4.1h8.6v-19.2l5.1-0.2V322.6z"/>
					<path class="st2" d="M364.2,776.1c1.3-4.4,2.4-8.1,3.5-11.8c0.6-2.1,1.7-2.9,4.1-1.8c-1.7,5.4-3.2,10.9-5.1,16.2
						c-0.5,1-1.5,1.7-2.6,1.8c-1.1-0.3-2-1-2.4-2c-1.4-3.8-2.6-7.7-4.1-12.2c-1.4,4.4-2.4,8.1-3.7,11.8c-0.4,1-1.7,2.5-2.5,2.4
						c-1.3-0.3-2.4-1.2-3-2.4c-1.8-5.1-3.4-10.3-5-15.6c2.6-1.2,3.8-0.4,4.5,2.1c0.9,3.6,2.1,7.1,3.4,11.6c1.4-4.6,2.4-8.3,3.7-11.8
						c0.4-1,1.7-2.2,2.6-2.2s2.3,1.1,2.7,2.1C361.7,767.9,362.7,771.7,364.2,776.1z"/>
					<path class="st2" d="M397.2,753.8v10c1.1-0.6,1.7-1,2.4-1.3c5-2.2,9.4,0.1,10.1,5.5c0.1,1.4,0.2,2.7,0.1,4.1c0,2.7,0,5.4,0,8.1
						c-2.5,0.9-3.6,0.4-3.5-2.1c0.1-2.9,0-5.7-0.1-8.6c-0.1-2.5-1-4.6-3.7-4.7c-2.5-0.2-4.7,1.7-4.8,4.2c0,0,0,0,0,0.1
						c-0.4,3.7-0.4,7.4-1.4,11.9c-0.7-0.9-2.2-1.7-2.2-2.6c-0.2-7.6-0.1-15.2-0.1-22.7C393.9,753.5,394.9,752.9,397.2,753.8z"/>
					<path class="st2" d="M182.5,768.7c-1.2-4.3-2.5-4.7-9.4-2.6c0.2-1.2,0.3-2.8,0.6-2.9c2.9-0.5,5.9-1.4,8.6-0.7
						c1.6,0.4,3.5,3.2,3.7,5.2c0.6,4.1,0.2,8.4,0.2,13.4l-3.6-1.8c-1.6,0.4-3.7,1.3-5.8,1.4c-2.8,0.1-5.1-1.2-5.5-4.4
						c-0.5-3.4,1-5.6,4.1-6.5C177.5,769.2,179.9,769.1,182.5,768.7z M182.5,772c-3.1,0-6.4-1-7.6,2.8c-0.2,0.7,1.6,2.7,2.7,2.9
						C180.5,778.4,182.3,776.3,182.5,772z"/>
					<path class="st2" d="M233.2,771.4c0,5.8-3.5,9.5-9,9.5c-5.7,0-9.2-3.7-9.1-9.8c0.1-5.7,3.7-9.6,9-9.6
						C229.6,761.6,233.3,765.5,233.2,771.4z M218.7,771.6c0.1,3.9,2.5,6.7,5.6,6.7c3-0.1,5.4-3.2,5.4-6.9c0-3.9-2.3-6.8-5.4-6.8
						C221.1,764.4,218.6,767.6,218.7,771.6L218.7,771.6z"/>
					<path class="st2" d="M304.9,781c-5.3,0-9.1-4-9.1-9.6s4-9.8,9.4-9.7c5.2,0.1,9,4.2,9.1,9.8C314.4,777.1,310.5,781,304.9,781z
						 M310.6,771.5c0-3.9-2.6-7.1-5.7-7c-2.9,0.1-5.4,3.3-5.4,6.9c0,3.8,2.4,6.7,5.5,6.7S310.6,775.3,310.6,771.5z"/>
					<path class="st2" d="M269,768.7c-0.7-4.2-1.9-4.5-9.3-2.8c0.2-1.1,0.3-2.6,0.6-2.7c2.7-0.5,5.7-1.5,8.2-0.8
						c1.7,0.4,3.7,3.1,4,5c0.6,4.2,0.2,8.6,0.2,13.7l-3.7-1.6c-1.4,0.4-3.4,1.3-5.4,1.3c-3,0.1-5.3-1.3-5.8-4.6
						c-0.5-3.4,1.3-5.5,4.4-6.4C264.4,769.3,266.7,768.9,269,768.7z M269.4,771.7c-2.1,0.3-4.3,0.3-6.1,1c-0.9,0.3-1.7,2.1-1.7,3.1
						c0.1,0.7,1.6,1.8,2.6,2C267.2,778.4,268.9,776.4,269.4,771.7L269.4,771.7z"/>
					<path class="st2" d="M317.5,780.3v-18.4l3.6,1.3c2-0.4,4.2-1.2,6.4-1.2c3.3,0,5.3,2.3,5.5,5.5c0.3,4.3,0.1,8.6,0.1,12.9
						c-2.4,0.9-3.4,0.2-3.4-2.2c0.1-2.8,0-5.7,0-8.5c-0.1-2.4-0.9-4.6-3.7-4.6s-4.4,1.7-4.8,4.3c-0.4,2.9-0.1,6-0.5,8.9
						c-0.1,1.1-1.2,2-1.9,3L317.5,780.3z"/>
					<path class="st2" d="M146.1,781.1c-0.8-0.8-2.2-1.6-2.3-2.5c-0.2-5.3-0.1-10.6-0.1-15.9c0.2-0.2,0.5-0.5,0.6-0.4
						c2.7,2,5.2,0.1,7.8-0.3c4.2-0.6,6.7,1.4,7.2,5.5c0.3,3.7,0.4,7.4,0.2,11.1c0,0.9-1.4,1.7-2.1,2.6l-1.3-0.6c0-3.3,0-6.6,0-9.9
						c0-2.7-0.3-5.4-3.8-5.7c-2.8-0.2-4.8,2.1-5,5.7c-0.1,3.2,0,6.4,0,9.6L146.1,781.1z"/>
					<path class="st2" d="M278.2,766.2l-4.4-2.7l0.5-1.1l2.9-0.4l2.9-5.4l1.3,0.4l0.4,4.2l4.5,2.3l-4.6,2.5c0,2.4-0.1,5.5,0,8.5
						c0.2,3.1,2.2,3.5,5.4,3.5c-0.7,0.9-1.4,2.3-2.3,2.5c-2.8,0.6-5.4-0.1-6.2-3.2c-0.6-2.4-0.4-4.9-0.5-7.4
						C278.2,768.6,278.2,767.1,278.2,766.2z"/>
					<path class="st2" d="M382.7,766.1l-4.4-2.6l0.6-1.1l2.8-0.2l3-5.5l1.3,0.5l0.5,4.8l4,0.4c0.2,2.6,0.2,2.6-4.1,3
						c0,3.2-0.4,6.6,0.2,9.7c0.2,1.3,2.6,2.2,4.7,3.8c-0.4,0.3-1.3,1.6-2.4,1.8c-2.7,0.4-5.1-0.4-5.7-3.4c-0.4-2.4-0.3-4.9-0.4-7.4
						C382.7,768.4,382.7,767,382.7,766.1z"/>
					<path class="st2" d="M212.4,765.3c-0.6-0.2-1.3-0.2-1.9-0.2c-1.6,0.3-3.1,0.7-4.6,1.1c1,1.2,1.7,2.8,3,3.6
						c4.2,2.6,5.4,4.7,4.1,7.9c-1.1,2.6-4.9,4.2-8.4,3.1c-1.1-0.3-1.8-1.7-2.7-2.6l0.7-0.7c1.4,0.2,2.9,0.7,4.3,0.5
						c1-0.2,1.9-0.9,2.4-1.9c0.2-0.5-0.6-1.8-1.3-2.4c-1-0.8-2.4-1.3-3.6-2c-2.7-1.8-3.4-5-1.6-7.4c1.5-2.1,7.1-3.3,8.8-1.6
						C212.2,763,212.1,764.2,212.4,765.3z"/>
					<path class="st2" d="M199.2,764.1l-6.3,2.2c1.4,1.4,2.5,3,4.1,4c3.4,2.2,4.5,5.1,2.5,8.1c-1.6,2.4-7.3,3.5-9.4,1.7
						c-0.6-0.5-0.7-1.8-1.1-2.9c2.1,0.2,3.7,0.6,5.2,0.5c1-0.1,1.8-0.7,2.2-1.6c0.2-0.7-0.5-1.9-1.1-2.5c-1-0.9-2.4-1.3-3.5-2
						c-2.9-1.8-3.6-5.2-1.8-7.6c1.5-2,7.2-3.1,8.9-1.5C199.3,763,199.2,764.1,199.2,764.1z"/>
					<path class="st2" d="M247.9,765.4c-3.2-0.6-6.8-0.9-8,2.7c-0.7,2.4-0.6,5,0.5,7.3c1.6,3.1,4.9,2.7,7.9,1.6l0.7,0.7
						c-0.7,0.9-1.1,2.4-2.1,2.7c-3.1,1.3-7.8-0.2-9.8-2.7c-2.5-3.2-2.6-8.9-0.3-12.2c2-2.8,6.3-4.4,9.6-3.2c0.8,0.3,1.3,1.5,1.9,2.4
						L247.9,765.4z"/>
					<path class="st2" d="M138.4,756v24.3c-2.1,0.9-3.4,0.7-3.4-1.9c0-6.8-0.1-13.7,0.1-20.5c0-1,1.4-1.9,2.1-2.8L138.4,756z"/>
					<path class="st2" d="M376.9,780.5c-2.4,0.6-3.5,0-3.4-2.4c0.1-4.5,0-8.9,0.1-13.3c0-2.4,0.1-2.4,3.3-2.4L376.9,780.5z"/>
					<path class="st2" d="M254.6,762.6c0,5.4,0.1,10.8-0.1,16.2c0,0.7-1,1.3-1.5,1.9c-0.6-0.7-1.8-1.4-1.8-2.1
						c-0.2-4.8-0.2-9.6,0-14.4c0-0.9,1.5-1.6,2.3-2.5L254.6,762.6z"/>
					<path class="st2" d="M289.5,762.3l3.2-0.2v18.2l-1,0.7c-0.7-0.9-2.1-1.7-2.1-2.6C289.4,773.2,289.5,767.8,289.5,762.3z"/>
					<path class="st2" d="M292.7,757.5c-2.9,0.9-4.2,0.1-3.4-3.2h3.4V757.5z"/>
					<path class="st2" d="M373.6,757.6c-0.7-3.1,0.3-4.1,3.2-3.3C377.6,757,377.1,758.5,373.6,757.6z"/>
					<path class="st2" d="M254.9,757.7h-3.6l-0.3-3.4l3.5-0.4L254.9,757.7z"/>
					<path class="st2" d="M345.1,860.4c0-10.9,8.8-19.7,19.3-19.6c10.7,0.2,19.3,8.9,19.3,19.6c-0.1,10.2-9.2,18.9-19.8,18.8
						C353.9,879.1,345.1,870.3,345.1,860.4z"/>
					<path class="st2" d="M209.6,857.2v-15.5c2.9,0,5.6-0.3,8.2,0.1c5.1,0.7,7,3.2,6.8,8.4c-0.2,4.6-2.1,6.6-7.3,7.1
						C214.9,857.3,212.4,857.2,209.6,857.2z"/>
					<path class="st2" d="M202.8,898.3c-0.1,2.8-2.5,5-5.3,4.9c-2.7-0.1-4.8-2.2-4.9-4.9c0-2.9,2.3-5.2,5.2-5.3
						C200.5,893.1,202.8,895.5,202.8,898.3z"/>
					<path class="st2" d="M260.7,898.1c0.1,2.8-2.1,5.1-4.9,5.2c-0.1,0-0.2,0-0.2,0c-2.8,0-5.1-2.3-5.1-5.1c0,0,0-0.1,0-0.1
						c0.1-2.7,2.3-4.9,5-5.1C258.3,893,260.6,895.3,260.7,898.1C260.7,898.1,260.7,898.1,260.7,898.1z"/>
					<path class="st2" d="M266.4,896.3l2.2-3l2.3,2.2l-3.2,2.3L266.4,896.3z"/>
				</g>
			</g>
		</g>
	</g>
</g>
</svg>
