<svg xmlns="http://www.w3.org/2000/svg" xmlns:xlink="http://www.w3.org/1999/xlink" viewBox="0 0 1028.33 850.29"><defs><style>.cls-1{fill:none;}.cls-2{clip-path:url(#clip-path);}.cls-3{fill:#fff;}</style><clipPath id="clip-path"><rect class="cls-1" width="1028.33" height="582.43"/></clipPath></defs><title>SCBWlogo</title><g id="Layer_2" data-name="Layer 2"><g id="Layer_1-2" data-name="Layer 1"><g class="cls-2"><path class="cls-3" d="M626.26,668.08V850.29H.78V668.08Zm-256,100.43a11.63,11.63,0,0,1-1.41-1.77q-7.83-19.17-15.62-38.35c-2.34-5.75-3.1-6.08-10-3.95l26.9,63.87,16.72-47.42,16.74,47.41,27.21-64.44c-8.2-.79-8.19-.79-10.88,5.91Q412.2,748.87,404.49,768l-1.34,0L386.67,721Zm-56.53,19.16c18.33-.13,33.58-15,33.52-32.76-.06-18.32-15.64-33.31-34.34-33-18.43.28-33.42,15.39-33.33,33.6C279.63,772.89,295.44,787.79,313.69,787.66Zm159.82-2.06V740l45.66,47.94V723.79h-7v45.48l-1.18.63L466.42,721.4v64.2Zm-334.72-.32c-3.93-4.94-7.56-9.63-11.33-14.2s-7.65-9-11.93-14c2.38-.26,4-.33,5.53-.62,8.25-1.52,12.45-6.72,12.54-15.46.1-9.06-4.32-16-12.16-16.94-7.48-.86-15.13-.19-22.69-.19v61.6H106V755.69c7.25,9.19,13.9,16.84,19.61,25.15C129.05,785.86,132.95,786.67,138.78,785.28Zm136.63.35V723.84h-7.49v23.65H234.6V723.83h-7.23V785.5h7.5V755.39h33.4v30.24Zm-125.21-30h25.24v-7.18H150.27V730.3h25.22v-6.45H142.8v61.7h32.68v-6.68H150.2Zm377.18,17.13c3.11,10.24,10.13,15.23,20.24,14.78s17.32-6.32,18.93-15.33c1.65-9.25-2.49-16.08-12.51-20.74a125.23,125.23,0,0,1-12.1-5.86c-5.38-3.24-6.57-9.17-3.22-13.66s10.57-5,15-.83c1.3,1.21,2.43,2.61,3.85,4.15l5.63-3.88c-4.73-8.06-11.64-10.94-20.71-9.06-7.34,1.52-12.41,6.64-13.11,13.22-.87,8.16,2.83,14.29,11.06,18.2,3.9,1.85,8,3.35,11.77,5.41,5.49,3,7.68,7.24,6.85,12.1-.88,5.13-4.18,8.4-9.59,9.51a11.74,11.74,0,0,1-13.2-5.75c-1-1.64-1.7-3.45-2.64-5.39ZM67.67,785.61h7.69v-55H92.58v-6.8H50.17V731h17.5ZM221.43,730.7v-7H178.85v7h17.58v54.78h7.71V730.7ZM99.06,806.09a9,9,0,1,0-9.45,8.69A8.8,8.8,0,0,0,99.06,806.09Zm68.72,8.7a9.07,9.07,0,0,0,8.91-8.79,8.85,8.85,0,0,0-9.23-8.92,8.86,8.86,0,1,0,.32,17.71Zm13.84-17.21V814l1,0,.43-7.24,7.12,8,1.09-1-4.89-6.67,1.33.23c.8-2.32,2.66-4.91,2.18-6.92C188.82,795.86,184.75,797.73,181.62,797.58Zm-45.1,13.56c-4.76,1.88-9,2.94-11.4-1.25a9.47,9.47,0,0,1-.05-7.8c2.38-4.53,6.7-3.46,11.63-1.06-2.81-4.76-6.09-4.43-9.22-3.48-3.94,1.19-5.92,4.25-6,8.3a8.39,8.39,0,0,0,6.34,8.58C130.75,815.31,133.89,815.32,136.52,811.14Zm58.09-.74-1.17,2c2.13.78,4.36,2.35,6.36,2.1,1.55-.19,3.88-2.62,3.93-4.11.06-1.81-1.82-3.76-3.07-5.5-.41-.57-1.71-.48-2.18-1a22.75,22.75,0,0,1-2-3.48c1.37-.27,2.73-.61,4.12-.76a6,6,0,0,1,1.89.43l.45-1.64c-1.8-.4-3.69-1.32-5.37-1-1.24.22-3.21,2.19-3.07,3.1.28,1.83,1.62,3.61,2.86,5.13.66.81,2.44.79,3,1.62.77,1.18.87,2.8,1.25,4.23-1.48.32-3,1-4.42.86C196.25,812.26,195.45,811.08,194.61,810.4ZM76.17,800.29l.76-1.4c-1.54-.64-3.18-1.93-4.61-1.73s-3.49,1.66-3.87,3,.6,3.44,1.63,4.65,3.18,1.31,4.17,2.48c.86,1,.77,2.81,1.1,4.26-1.46.27-3,.85-4.38.71-.94-.09-1.78-1.21-2.67-1.86l-1,1.94c2.11.8,4.3,2.36,6.3,2.14,1.56-.17,4.08-2.6,4-3.92-.09-2-1.94-4-3.3-5.79-.52-.7-2-.65-2.57-1.34a11.59,11.59,0,0,1-1.26-3.29,14.15,14.15,0,0,1,3.35-.89C74.61,799.22,75.39,799.92,76.17,800.29Zm74.8-.09v13.95l1.37,0V800.33l4.9-1.59-.17-.84H146.2l-.12,1ZM105,812V797.68l-1.34.14v16.76l7.74-.56-.07-1.2Zm35.93,2,1.09,0V797.7l-1.09,0Zm-24.25-16.12h-1v16.14h1Z"/><path class="cls-3" d="M150.28,523.08l22.18-148H211.9c-1.51,8.51-2.92,16.67-4.41,24.82Q191.6,487,175.77,574.2c-.6,3.34-1.75,4.38-5.07,4.34-13.8-.16-27.6-.07-41.75-.07L106.42,432.69l-.81,0q-2.52,16.22-5,32.44c-5.68,36.67-11.32,73.35-17.15,110-.2,1.28-2.32,3.21-3.57,3.23-13.16.24-26.33.09-39.5.19-2.86,0-3.51-1.27-4-3.81Q26.07,517.48,15.55,460.3,8.28,420.52,1,380.75c-.32-1.77-.51-3.56-.8-5.68H39.55L61.76,523.33l.85,0L86.24,375h39.5l23.6,148Z"/><path class="cls-3" d="M524.79,350.2H487.45V146.78c15.12,0,29.91-.11,44.7.19,1.3,0,3.11,2.54,3.72,4.24Q556.27,208,576.44,264.88A153.46,153.46,0,0,0,584.27,284V147.07h37.36v203.4H609.85c-9.83,0-19.67-.25-29.48.12-4.16.16-5.69-1.39-7-5.08q-22.82-65.45-45.94-130.79a10.35,10.35,0,0,0-2.67-4.5Z"/><path class="cls-3" d="M.68,349.82V147.49c.52-.28.8-.56,1.08-.56,26.64.22,53.3-.16,79.9.92,15.86.64,30.46,6.43,38.3,21.49,9.46,18.18,9.77,37.11.27,55.57-3.84,7.45-10.21,12.62-18,15.88-1.65.69-3.25,1.48-4.52,2.06,5.15,2.13,10.66,3.72,15.47,6.52,11.66,6.78,17.14,17.85,19.06,30.72a72.15,72.15,0,0,1-3.1,35.47c-7.87,21.86-24.95,32.46-46.89,33.72-26.73,1.54-53.58.83-80.39,1.07C1.57,350.35,1.28,350.09.68,349.82Zm41-30.33c8.08,0,15.75.57,23.31-.12,13.82-1.26,22.41-8.52,24.17-21.06a68.17,68.17,0,0,0-.69-20.72c-1.5-8.72-7.39-15-16-16.63-10-1.88-20.29-2-30.81-2.93Zm0-88.28c9.54-1,18.52-1.29,27.28-2.89,8.13-1.48,14-6.81,15.39-15.14a66.73,66.73,0,0,0,.23-18.28c-1-8.72-6.6-14.51-15-15.91-9.06-1.51-18.38-1.43-27.89-2.07Z"/><path class="cls-3" d="M461.85,477.51c.58.52.77.86,1,.9,19.31,3.11,25.41,14.29,27.51,31.1,1.42,11.37,1.45,22.91,2.19,34.36.43,6.64.39,13.4,1.78,19.84,1.07,4.92,4.05,9.43,6.31,14.4a16.83,16.83,0,0,1-2.78.35c-12.33,0-24.67-.14-37,.12-3.52.07-5.58-1.25-6.17-4.29a143,143,0,0,1-2.92-19.13c-.73-12.8-.71-25.64-1.26-38.45-.7-16.48-8.9-24.24-25.25-24.25H404.88v85.6h-41v-203c1.48-.1,2.92-.27,4.37-.27,23.5,0,47-.18,70.49.1a92.72,92.72,0,0,1,19.77,2.36c18.1,4.21,29.38,15.7,33.35,33.85,3,13.73,2.61,27.46-2.1,40.86-4.26,12.11-12.56,20.16-24.7,24.28C464.06,476.6,463.08,477,461.85,477.51Zm-56.79-71.84v57.83c7.66,0,15,.45,22.27-.1,13.11-1,21.33-7.58,23.82-19a53.18,53.18,0,0,0,1.06-14.87c-1-14.25-8.8-22.65-22.25-23.72C421.86,405.15,413.67,405.67,405.06,405.67Z"/><path class="cls-3" d="M510.82,375h40.77v79.52l1.12.3c1.17-1.72,2.38-3.4,3.49-5.15q22.8-35.82,45.64-71.62c.87-1.36,2.55-3.11,3.87-3.14,13.93-.23,27.86-.14,42.51-.14-1,1.94-1.65,3.25-2.41,4.46-16.48,26-32.9,52.09-49.55,78-2.24,3.49-2.56,6-.52,9.82,18.8,35.05,37.36,70.24,56,105.39.91,1.72,1.71,3.51,2.9,6-12,0-23.5-.69-34.84.22-8.82.71-13-2.35-16.75-10.34C592.27,545.29,580.4,522.75,569,500c-.65-1.3-1.36-2.58-2.46-4.65-5,7.73-9.77,14.87-14.25,22.17-.77,1.26-.53,3.22-.53,4.86q0,25,0,50c0,1.81,0,3.61,0,5.75H510.82Z"/><path class="cls-3" d="M352.33,476.85c-1.8,18-2.37,36.25-5.66,54-7.45,40.24-32.51,52.55-68.83,51.3a90.15,90.15,0,0,1-27.24-5.22c-19.37-7-28.42-23.08-33-42.09-5.53-23-5.37-46.55-5-70,.3-16.82,1.26-33.6,5.88-49.92,7.66-27.1,24.83-41.63,53-43.15a132.13,132.13,0,0,1,34.6,2.39c19.32,4.17,31.15,17.47,37.39,36,5.11,15.14,6.62,30.85,7.1,46.68.2,6.65,0,13.31,0,20Zm-41.51,1.21L309.4,478c0-9.49.36-19-.09-28.45-.56-11.6-1.2-23.28-5.79-34.23-3.91-9.32-11-13.71-21-13.86-10.36-.15-18.42,3.6-22.08,13.61-2.31,6.33-4.48,13.11-4.69,19.75-.79,25.4-1.18,50.83-.81,76.24.12,8.48,2.18,17.16,4.76,25.3,3.66,11.52,10.8,15.68,23.19,15.47,10.86-.18,17.74-5.23,21.55-16a34.57,34.57,0,0,0,2.17-8.16C308.11,511.15,309.44,494.6,310.83,478.06Z"/><path class="cls-3" d="M144.54,147h41c0,2.1,0,4,0,5.94,0,46.67,0,93.33.26,140a58.31,58.31,0,0,0,2.79,16.64c3,9.79,10.21,14.3,21,14.26s18.19-4.7,20.75-14.53a95.29,95.29,0,0,0,2.94-23.16c.26-44.33.13-88.66.13-133,0-1.94,0-3.88,0-6.06H274c.13,1.53.32,2.81.33,4.1,0,47.17.21,94.33-.18,141.5a86.17,86.17,0,0,1-4.2,25c-5.74,18.07-18.71,29.11-36.93,33.85a99,99,0,0,1-45.08.85c-24.75-5-39.21-21.19-42.35-46.67a140.89,140.89,0,0,1-1-16.93q-.12-67.75,0-135.5C144.54,151.27,144.54,149.31,144.54,147Z"/><path class="cls-3" d="M884.83,203.27H846.18c-.53-4-.89-8.14-1.64-12.15-2.43-13.06-10.63-18.73-25.1-17.52-11.56,1-18.25,8.81-19,21.11-.81,13.59,5.09,22.57,17.31,27.92,14.18,6.2,28.36,12.38,42.41,18.86A75.24,75.24,0,0,1,872.55,249c10.17,7.34,17.14,17.11,18,29.77.72,10.2,1.06,20.76-.73,30.75-4.1,22.92-19.1,36.31-41.27,41.7a110,110,0,0,1-51,.65c-25.79-5.89-39.12-21.74-40.89-48.4-.36-5.42-.05-10.88-.05-16.51a17.88,17.88,0,0,1,2.1-.27c12.66,0,25.31,0,38.32,0,.41,5.38.57,10.65,1.24,15.85,2,15.22,11.49,22.28,28.27,21.22,13.4-.85,21.83-10.51,22.15-24.69.26-11.73-4.45-20.6-14.89-25.54s-21.31-8.42-31.78-13.07A142.14,142.14,0,0,1,781,249.25c-11.64-7.74-18.49-18.93-20.61-32.84a84.09,84.09,0,0,1,1.05-32.73c4.42-18.31,15.51-30.83,33.35-36.61a89.93,89.93,0,0,1,58.37.76C875.44,155.58,887.27,175.37,884.83,203.27Z"/><path class="cls-3" d="M982.47,203.06c-.64-4.45-1-8.93-2-13.27-2.57-11.55-9.91-16.72-22.65-16.31-11.87.38-18.67,6.19-20.63,17.64-2.58,15,2.56,25,16.72,31.42,14.37,6.55,29,12.46,43.27,19.31,12.57,6.06,24,14.35,27.66,28.56,6.31,24.47,5.24,48.11-14,67.36-9.28,9.28-21.39,13.16-34.15,15-16,2.36-31.84,2.31-47.5-2.08-20.92-5.86-32.34-20.1-35.45-41.17-1.08-7.33-1.06-14.83-1.57-22.61h40.92c.77,6.55,1,13,2.37,19.3,2.73,12.61,11.7,18.23,26.77,17.51,12-.58,20.6-8.15,22.39-19.63,2.31-14.77-2.77-25.19-16.54-31.84-7.9-3.82-16.32-6.57-24.56-9.69-11.73-4.44-23.18-9.46-32.41-18.23-14.68-13.95-17.27-31.89-15.1-50.68,3.54-30.68,21.5-47.38,52.38-50.28a102.58,102.58,0,0,1,34.2,2.27c23.27,5.69,36.79,21.62,38.68,45.51.3,3.8,0,7.64,0,11.88Z"/><path class="cls-3" d="M412.39,203.47h-38.9c-.66-4.67-1-9.13-1.95-13.46-2.48-11.51-9.68-16.8-22-16.52s-19.2,5.82-21.32,17.4c-2.7,14.8,2.28,24.94,16,31.33,11.61,5.39,23.5,10.2,35.19,15.42,4.7,2.1,9.32,4.43,13.8,7C409,253.55,418,266.75,418.8,285.28c.83,19.39-1.56,37.65-16.36,52-8.27,8-18.5,12.29-29.63,14.51-17.54,3.51-35.05,3.67-52.42-1.06-21.22-5.78-32.61-20.23-35.7-41.5-1-7.21-1-14.56-1.53-22.26h41.16c.38,4.95.65,10,1.19,15.1,1.64,15.17,11.05,22.42,27.94,21.65,13.23-.6,22.09-10.09,22.6-23.8.45-12-4.13-21.28-15-26.54-8.5-4.11-17.63-6.89-26.21-10.84-9.48-4.37-19.12-8.69-27.82-14.36-11.59-7.55-17.74-19.15-19.59-32.86-2.25-16.71-1.14-33,7.89-47.79,7.77-12.76,19.78-19.5,33.94-22.59a95.94,95.94,0,0,1,45.52,1c22.94,6.08,35.9,22.06,37.55,46C412.61,195.56,412.39,199.21,412.39,203.47Z"/><path class="cls-3" d="M772.51,431.47H733.84c-.76-4.81-1.17-9.6-2.3-14.2-2.94-11.89-10.57-16.74-24-15.69-11.23.88-17.87,7.31-19.2,18.61-1.81,15.36,3.12,24.23,17.33,30.66,14.85,6.72,30.13,12.58,44.57,20.07,22.77,11.8,30.37,26.86,28.91,54.18-.88,16.55-5.63,31.44-18.89,42.47-9.65,8-21.11,11.72-33.34,13.45-15.49,2.2-30.89,2.11-46-2.12-21.44-6-34.39-21.65-36.27-43.8-.56-6.58-.74-13.2-1.11-20.15h41.08c.55,6,.59,12,1.75,17.79,2.91,14.43,12.43,20.43,29,18.92,12.2-1.11,20.61-10.65,21-23.81.37-11.93-4.18-21.29-15.16-26.43-9.16-4.29-18.75-7.65-28.11-11.49-4.77-2-9.6-3.81-14.17-6.16-24.2-12.41-34.08-29.84-31.9-59.89,1.59-21.9,10.66-39.45,32.2-47.38a91.6,91.6,0,0,1,29.7-5.34,101.32,101.32,0,0,1,29.92,4.33c20.58,6.09,32.4,22.18,33.65,43.58C772.71,423,772.51,427,772.51,431.47Z"/><path class="cls-3" d="M639,147.06H752.37v33.45h-72v47.81H748v33.85H680.37v54.2h74.85V350.2H639Z"/><path class="cls-3" d="M470.76,350.19H430V147.08h40.76Z"/><path class="cls-3" d="M918.66,407.44c-1.56,7.59-2.4,14.56-4.5,21.13-2.84,8.88-10.24,13.73-19.25,14-9.72.31-17-3.76-20.59-12.76a55.63,55.63,0,0,1,.18-43.28c3.49-8.43,10.28-12.46,19.29-12.5,9.19,0,16.42,3.85,19.62,12.64C915.87,393.46,917,400.71,918.66,407.44Zm-33.52.8c.67,5.37,1.08,10.5,2,15.54.64,3.4,2.52,6.47,6.53,6.42,4.3-.05,6.38-2.93,7.24-6.93a73.65,73.65,0,0,0-.17-30.64c-.75-3.66-2.77-6-6.73-6.09s-5.86,2.42-6.51,5.68C886.45,397.56,885.9,403,885.14,408.24Z"/><path class="cls-3" d="M0,85.34H7.75c.15,3.17.15,6.28.48,9.36,1.55,14.67,12.36,24.09,27.13,23.75,15.22-.35,26.57-11.13,27.17-25.78.48-12-3.69-19.23-14.8-24-7.91-3.42-16.21-5.95-24.28-9C6.59,53.21-.05,40.92,3.67,23.27,6.71,8.89,19.94-.51,36.15.19c20.69.9,31.64,12.37,30.74,32.58H60c-.15-1.68-.3-3.14-.41-4.6-1-14-10.44-22.51-24.49-22C16.94,6.73,7,19.24,10.74,37c1.64,7.84,6.69,12.9,14,15.69,7.45,2.85,15,5.31,22.54,8.05,23,8.41,30.32,32.7,15.44,51.57-6.79,8.61-16.35,11.59-26.91,12-16.6.63-29.12-6.85-33.29-20.71C.82,98,.84,91.88,0,85.34Z"/><path class="cls-3" d="M836.91,428.24h25.27v12.71H818c-.73-7.41-1.22-13.75,6-19.08,7-5.18,13-11.93,18.57-18.66,2.42-2.91,3.34-7.45,3.81-11.39.19-1.55-2.45-4.51-4.26-4.94s-5.76,1-6.15,2.36c-1.45,5.14-4.94,4.79-8.84,4.69-9.17-.22-10.26-2.14-5.69-10.42,4.07-7.37,13.83-11.09,24.5-9.31,11.89,2,18.08,9.62,16.23,21.32a28.57,28.57,0,0,1-5.43,12.61c-4.46,5.72-10,10.6-15.12,15.81C840.48,425.07,839.25,426.1,836.91,428.24Z"/><path class="cls-3" d="M396.42,36.45h-7c-.61-3.36-1-6.8-1.86-10.13-3-11.87-10.69-18.74-22.07-19.93-11.9-1.24-22.15,3.76-26.78,14.89a93.29,93.29,0,0,0-6.43,24.91c-1.93,16.93-1.77,34,3.28,50.49,2.94,9.62,8.05,17.62,18.51,20.58,12.73,3.59,24.29-1.47,30.56-13.54A59.15,59.15,0,0,0,388.72,93c1-3.49,1.48-7.14,2.26-11.08h6c4.48,21.3-15.62,43.68-37.77,42.32-14.25-.87-23.54-8.1-28.83-21-6.08-14.83-7.09-30.5-6.07-46.14.72-11,2.11-22.34,5.51-32.77,6.4-19.63,23.3-28,42.67-22.9,14.06,3.71,20.33,14,23,27.3C396,31.16,396.1,33.64,396.42,36.45Z"/><path class="cls-3" d="M524.25,116.89c-1,2.2-1.35,5-2.58,5.47-3.61,1.31-7.86,1.85-10.38-2-1.65-2.53-2.26-5.74-3.39-8.8-6.17,10.59-15.9,14.63-27.72,11.87a22.28,22.28,0,0,1-12.08-7.75C457,100.43,464.69,79.87,482.7,75c5.77-1.57,11.57-3,17.32-4.66,6.81-1.94,8.58-4.36,8.67-11.43,0-.67,0-1.33,0-2,.68-17-10.74-21.14-24.45-17.38-6.82,1.87-9.5,7.31-10.66,13.73-.35,1.94-.49,3.92-.75,6.12H467.2C464.48,47.6,472.41,35,484.5,33a45.5,45.5,0,0,1,14.88.08c10.82,1.85,16.09,9,16.15,21.22.1,18.48,0,37,0,55.43C515.55,116.64,516.67,117.67,524.25,116.89Zm-15-44.08c-4.2,1.56-7.21,2.86-10.34,3.8-5.08,1.53-10.27,2.71-15.34,4.24-6.12,1.85-10.81,5.56-11.9,12.11-1.3,7.8-1.71,15.74,4.8,21.85a13.08,13.08,0,0,0,5.68,2.83c11.89,2.92,22.83-3.72,25.11-16.43C508.91,92,508.65,82.44,509.25,72.81Z"/><path class="cls-3" d="M240.71,121.82h-6.39V2.46h6.15V44.94L242,46.1a12.66,12.66,0,0,1,.94-2.59c6.24-9.9,15.57-12.51,26.43-10.66,9.17,1.56,15.56,8.47,15.84,19.22.59,23.12.18,46.26.18,69.71H278.7v-5.38q0-28.49,0-57c0-1.66,0-3.34-.13-5C277.9,46.1,274.38,41,268,39.09c-7.8-2.38-16-.07-20.8,5.94s-6.43,13.07-6.47,20.55c-.08,16.83,0,33.66,0,50.49Z"/><path class="cls-3" d="M400.74,75.21c1-6.25,1.69-15.11,4-23.52,3.68-13.35,12.57-19.21,26.79-19.22,12.95,0,21.37,6,25.2,19.18a93.46,93.46,0,0,1,.12,52.71c-5.5,19-27.55,26.45-42.89,15-7.45-5.58-10-13.95-11.35-22.61C401.65,90.47,401.48,84.12,400.74,75.21Zm53,3.11c-1.35-8.46-2-17-4.16-25.05C446.84,43,440.3,38.35,431,38.23c-9.55-.13-16.37,4.61-19.27,14.88a91.18,91.18,0,0,0,.1,50.69c2.79,9.71,10,14.81,19.05,14.66,9.18-.15,16.12-5.13,18.69-15C451.67,95.3,452.37,86.82,453.72,78.32Z"/><path class="cls-3" d="M135.1,78.7c-1.55,9-2.3,18.32-4.9,27.13-3.74,12.66-13.2,18.67-26.4,18.54-12.51-.13-21.34-6.31-25-18.92a95,95,0,0,1-.07-54.05c3.93-13.46,13-19.08,28-18.92,12,.13,20.42,6.36,23.91,19.35C132.91,60.39,133.6,69.4,135.1,78.7Zm-7.52-1.58c-1.27-7.65-2-16.32-4.27-24.54-2.75-9.86-9.45-14.35-18.58-14.36-9.36,0-16.1,4.65-19,14.62a91.57,91.57,0,0,0,0,51.17c2,6.84,6.28,12.07,13.79,13.71,12.22,2.67,21.62-3.23,24.64-16.37C126,93.79,126.41,85.94,127.58,77.12Z"/><path class="cls-3" d="M970.37,441.29l22.48-51.49H964.92c0-4.16-.2-7.76.14-11.31.09-.91,1.85-2.37,2.86-2.38,13.27-.16,26.55-.11,41.28-.11-.85,6.35-.67,12.44-2.56,17.8-5.08,14.4-11.14,28.44-16.61,42.71-1.39,3.62-3.24,5.31-7.31,4.87C979,441,975.18,441.29,970.37,441.29Z"/><path class="cls-3" d="M522.7,94H528c.5,3.72.71,7.37,1.52,10.88,2.06,9,8.41,13.56,18.38,13.61,8.9,0,15.7-4.83,17.61-12.62C568,95.75,565,88,556.49,83.93c-6-2.88-12.32-5-18.38-7.77C526.36,70.82,522,62.08,524.41,49.41c1.56-8.14,6.27-13.8,14.25-15.61a43.56,43.56,0,0,1,16.26-.75C566.47,35,572.12,45,570.21,58.86h-5.43c-.43-3.15-.66-6.29-1.31-9.34-1.58-7.35-7.1-11.3-15.47-11.32s-14.59,4.21-16.31,11.21C529.34,59,533,66.66,542.1,70.59,547,72.7,552,74.46,557,76.37c12.69,4.89,18.25,14.11,16.45,27.32-1.55,11.34-10.48,19.29-23,20.51C531.48,126,518.94,112.53,522.7,94Z"/><path class="cls-3" d="M139.06,34.69h6.64c0,2.05,0,4,0,5.95q0,27.74,0,55.48a55.12,55.12,0,0,0,.51,7.46c.94,6.72,3.77,12.14,10.9,14,7.71,2,14.62.47,19.94-5.71,4.88-5.67,6.67-12.51,6.65-19.91q0-25.74,0-51.48c0-1.79,0-3.59,0-5.66h6.56v87.08h-6.31l-.51-11.51C177.35,121,169,125.22,158,124.05c-10.8-1.15-18-7.9-18.37-18.86-.63-18.8-.42-37.63-.54-56.45C139,44.13,139.06,39.51,139.06,34.69Z"/><path class="cls-3" d="M953.08,440.89H938.65V393.53l-13.72,7.63c0-5-.2-9,.13-12.85.09-1.11,1.54-2.35,2.65-3.08,2.35-1.54,5.55-2.24,7.23-4.27,4.89-5.9,11.08-5.8,18.15-4.82Z"/><path class="cls-3" d="M604.78,34.34v5.59H590.64c-.1,2.19-.24,3.94-.24,5.69q0,28.24,0,56.48c0,15,.49,15.46,15.17,14.71,1.14,3.55.82,5.6-3.8,6.15-12.91,1.53-18-2.74-18-15.76q0-30.49,0-61c0-1.81,0-3.62,0-5.94H572.06l-.36-5.65h11.87V8.77h6.7V34.34Z"/><path class="cls-3" d="M215,34.52h14.25l.36,5.52H215.33c-.13,2-.3,3.44-.3,4.9q0,30,0,60c0,11.45,1.87,13.13,13.14,11.85a20.64,20.64,0,0,1,2.12,0v6c-4.4,0-8.84.42-13.18-.11-5.24-.64-8.4-4.83-8.54-11.27-.27-13.15-.18-26.32-.21-39.48,0-10.32,0-20.64,0-31.47l-11.61-.56V34.44h11.47V8.73L215,8.42Z"/><path class="cls-3" d="M313.16,642.31c1.75-5.91,3.27-10.82,4.63-15.77.79-2.87,2.31-3.83,5.45-2.41-2.23,7.25-4.35,14.55-6.81,21.74a4.47,4.47,0,0,1-3.48,2.39,4.76,4.76,0,0,1-3.28-2.72c-1.92-5.07-3.48-10.29-5.46-16.34-1.82,5.95-3.16,10.92-4.92,15.75-.51,1.39-2.34,3.38-3.32,3.26A5.75,5.75,0,0,1,292,645c-2.45-6.86-4.49-13.87-6.68-20.86,3.44-1.55,5.13-.5,6,2.82,1.25,4.79,2.77,9.5,4.54,15.49,1.87-6.16,3.18-11.09,4.94-15.86.48-1.3,2.31-2.89,3.53-2.89s3.14,1.53,3.64,2.81C309.86,631.32,311.24,636.29,313.16,642.31Z"/><path class="cls-3" d="M357.38,612.39v13.43c1.43-.76,2.31-1.29,3.25-1.72,6.65-3,12.6.17,13.57,7.4a43.14,43.14,0,0,1,.17,5.49c0,3.64,0,7.27,0,10.87-3.36,1.17-4.81.52-4.72-2.88.11-3.83-.06-7.66-.14-11.49-.07-3.35-1.31-6.15-5-6.26a6.08,6.08,0,0,0-6.48,5.74c-.57,4.93-.54,9.93-1.93,15.94-1-1.15-2.93-2.27-3-3.44-.24-10.16-.11-20.32-.15-30.48C353,611.91,354.37,611.2,357.38,612.39Z"/><path class="cls-3" d="M69.63,632.38c-1.59-5.76-3.3-6.27-12.66-3.53.29-1.59.36-3.78.77-3.85,3.82-.62,7.94-1.82,11.47-.89,2.21.58,4.66,4.35,5,7,.77,5.52.23,11.23.23,18l-4.86-2.37c-2.12.54-4.91,1.78-7.72,1.83-3.71.07-6.78-1.6-7.42-5.87-.68-4.52,1.33-7.53,5.54-8.73C63,633,66.17,632.89,69.63,632.38Zm.11,4.43c-4.12,0-8.52-1.32-10.15,3.74-.28.89,2.1,3.56,3.61,3.91C67,645.35,69.39,642.49,69.74,636.81Z"/><path class="cls-3" d="M137.69,636c0,7.77-4.73,12.77-12.06,12.78-7.59,0-12.33-5-12.25-13.07.08-7.68,4.94-12.9,12-12.93C132.83,622.77,137.72,628,137.69,636Zm-19.48.16c.1,5.19,3.31,9,7.47,9,4-.08,7.25-4.31,7.2-9.27-.06-5.21-3.14-9.13-7.24-9.18C121.37,626.63,118.11,630.79,118.22,636.18Z"/><path class="cls-3" d="M233.74,648.81c-7.11,0-12.16-5.41-12.17-12.93s5.41-13.18,12.66-13.06c7,.11,12.1,5.64,12.15,13.07C246.45,643.57,241.27,648.85,233.74,648.81Zm7.64-12.73c0-5.24-3.43-9.55-7.59-9.42-3.9.13-7.24,4.42-7.24,9.3,0,5.09,3.18,9,7.36,9S241.34,641.19,241.38,636.08Z"/><path class="cls-3" d="M185.58,632.37c-1-5.59-2.6-6.09-12.53-3.7.29-1.44.35-3.54.8-3.63,3.65-.69,7.61-2,11-1.11,2.29.58,5,4.12,5.39,6.65.81,5.67.25,11.53.25,18.34l-5-2.19c-1.94.51-4.58,1.7-7.26,1.78-4,.11-7.1-1.8-7.74-6.18-.66-4.55,1.74-7.36,5.87-8.51A76.51,76.51,0,0,1,185.58,632.37Zm.6,4c-2.87.41-5.71.4-8.19,1.34-1.18.45-2.33,2.77-2.24,4.16.07,1,2.11,2.42,3.45,2.67C183.17,645.28,185.48,642.62,186.18,636.37Z"/><path class="cls-3" d="M250.65,647.86V623.22l4.83,1.69c2.65-.54,5.65-1.65,8.63-1.62,4.46,0,7.06,3.05,7.32,7.32.35,5.75.09,11.54.09,17.31-3.26,1.2-4.58.29-4.49-3,.1-3.81.06-7.64-.06-11.45-.1-3.25-1.17-6.11-5-6.21s-5.93,2.26-6.37,5.75c-.49,3.93-.2,8-.69,11.9-.18,1.43-1.63,2.7-2.5,4Z"/><path class="cls-3" d="M20.91,648.91c-1.07-1.12-3-2.21-3.06-3.37-.29-7.11-.14-14.24-.14-21.31.32-.23.71-.62.78-.56,3.62,2.64,7,.08,10.47-.41,5.57-.77,9,1.82,9.64,7.42a101.93,101.93,0,0,1,.31,14.89c-.05,1.2-1.83,2.33-2.82,3.49l-1.71-.8c0-4.42,0-8.83,0-13.25,0-3.66-.39-7.25-5.11-7.68-3.69-.33-6.45,2.84-6.66,7.7-.18,4.28,0,8.57,0,12.86Z"/><path class="cls-3" d="M198,629l-5.94-3.66.66-1.42,3.92-.48,3.92-7.27,1.74.6.56,5.66,6.08,3.06-6.21,3.3c0,3.2-.18,7.33.05,11.42s2.92,4.73,7.28,4.71c-1,1.18-1.88,3.14-3.11,3.41-3.7.82-7.3-.09-8.3-4.25-.76-3.17-.51-6.59-.63-9.9C198,632.22,198,630.24,198,629Z"/><path class="cls-3" d="M338,628.83l-5.88-3.49.75-1.5,3.8-.33,4-7.32,1.7.66.63,6.48,5.33.5c.32,3.43.32,3.43-5.51,4,0,4.31-.53,8.8.26,13.06.32,1.74,3.49,3,6.31,5.15-.55.44-1.73,2.19-3.15,2.4-3.56.53-6.9-.56-7.65-4.6-.6-3.24-.45-6.62-.56-9.94C338,631.95,338,630,338,628.83Z"/><path class="cls-3" d="M109.69,627.74a10.22,10.22,0,0,0-2.56-.32c-2.09.41-4.16,1-6.23,1.45,1.32,1.62,2.33,3.75,4,4.78,5.6,3.43,7.28,6.28,5.49,10.59-1.46,3.53-6.53,5.61-11.21,4.11-1.42-.45-2.39-2.31-3.57-3.53l1-1c1.93.26,3.9.88,5.76.64a4.74,4.74,0,0,0,3.2-2.48c.3-.72-.79-2.44-1.7-3.17-1.4-1.13-3.24-1.68-4.76-2.67-3.63-2.35-4.53-6.64-2.19-9.94,2-2.86,9.57-4.41,11.86-2.2C109.51,624.66,109.37,626.25,109.69,627.74Z"/><path class="cls-3" d="M92,626.18l-8.43,2.94c1.83,1.83,3.41,4,5.53,5.42,4.58,3,6,6.89,3.34,10.8-2.15,3.19-9.76,4.73-12.66,2.31-.86-.72-.93-2.37-1.48-3.92,2.83.33,4.94.86,7,.7a4,4,0,0,0,3-2.12c.26-.91-.63-2.54-1.5-3.29-1.36-1.16-3.18-1.75-4.72-2.72-3.85-2.44-4.85-6.91-2.36-10.25,2-2.71,9.68-4.18,11.89-2C92.17,624.63,92,626.18,92,626.18Z"/><path class="cls-3" d="M157.36,627.91c-4.35-.8-9.07-1.15-10.69,3.61a13.73,13.73,0,0,0,.67,9.74c2.13,4.12,6.56,3.66,10.65,2.18l1,1c-.9,1.26-1.53,3.15-2.75,3.67-4.11,1.75-10.39-.22-13.11-3.67-3.36-4.25-3.52-11.89-.36-16.4,2.65-3.78,8.4-5.9,12.85-4.34,1.1.39,1.75,2.07,2.6,3.16Z"/><path class="cls-3" d="M10.53,615.32v32.52C7.7,649,6,648.73,6,645.23c0-9.17-.1-18.33.14-27.49C6.19,616.46,8,615.24,9,614Z"/><path class="cls-3" d="M330.21,648.13c-3.24.86-4.66.06-4.55-3.26.18-6,0-11.93.1-17.89,0-3.28.15-3.28,4.46-3.25Z"/><path class="cls-3" d="M166.35,624.1c0,7.25.07,14.5-.09,21.75,0,.88-1.32,1.74-2,2.61-.84-.92-2.38-1.82-2.41-2.78-.22-6.44-.28-12.9,0-19.34.05-1.15,2-2.21,3.14-3.31Z"/><path class="cls-3" d="M213.07,623.79l4.25-.26v24.39l-1.32,1c-1-1.17-2.75-2.32-2.79-3.52C212.93,638.3,213.07,631.19,213.07,623.79Z"/><path class="cls-3" d="M217.42,617.34c-3.94,1.19-5.62.11-4.6-4.31h4.6Z"/><path class="cls-3" d="M325.85,617.39c-1-4.15.35-5.55,4.3-4.39C331.14,616.65,330.47,618.67,325.85,617.39Z"/><path class="cls-3" d="M166.65,617.59h-4.77l-.42-4.57,4.72-.47Z"/><path class="cls-3" d="M287.6,755.28c.06-14.57,11.76-26.45,25.84-26.24a26.3,26.3,0,0,1,25.9,26.3c-.14,13.72-12.33,25.29-26.47,25.13C299.38,780.31,287.55,768.51,287.6,755.28Z"/><path class="cls-3" d="M106,750.87V730.09c3.83,0,7.47-.38,11,.08,6.83.9,9.44,4.34,9.17,11.2-.24,6.22-2.78,8.81-9.78,9.46C113.08,751.12,109.77,750.87,106,750.87Z"/><path class="cls-3" d="M96.84,806A6.85,6.85,0,0,1,83.15,806a7.25,7.25,0,0,1,6.91-7.13A7.15,7.15,0,0,1,96.84,806Z"/><path class="cls-3" d="M174.42,805.81a6.73,6.73,0,0,1-6.85,6.94,6.86,6.86,0,0,1-6.82-7,7.16,7.16,0,0,1,6.66-6.79A6.92,6.92,0,0,1,174.42,805.81Z"/><path class="cls-3" d="M182.16,803.3l3-4.07,3.12,3L184,805.25Z"/></g></g></g></svg>