<svg xmlns="http://www.w3.org/2000/svg" viewBox="0 0 560 408.73"><defs><style>.cls-1{fill:#333;}.cls-2{fill:#ff69b4;}</style></defs><title>under-construction</title><g id="Layer_2" data-name="Layer 2"><g id="Layer_1-2" data-name="Layer 1"><path class="cls-1" d="M553.11,395H541.63V34.44a6.89,6.89,0,0,0-6.89-6.89H406.15a6.89,6.89,0,0,0-6.89,6.89V64.29H385.49V34.44a6.89,6.89,0,0,0-6.89-6.89H348.75V6.89a6.89,6.89,0,1,0-13.78,0V27.55H305.12a6.89,6.89,0,0,0-6.89,6.89V64.29H277.56a6.89,6.89,0,0,0-6.89,6.89v57.41H213.27a6.89,6.89,0,0,0-6.89,6.89V395H194.9a6.89,6.89,0,0,0,0,13.78H553.11a6.89,6.89,0,1,0,0-13.78ZM312,41.33h59.7v23H312ZM289,395h-4.59V383.47a6.89,6.89,0,0,0-13.78,0V395h-4.59V372h23ZM335,218.14V395H302.82V365.1a6.89,6.89,0,0,0-6.89-6.89H259.19a6.89,6.89,0,0,0-6.89,6.89V395H220.16V142.37H335v75.78Zm6.89-89.55H284.45V78.07H399.26V211.25H348.75v-23h20.67a6.89,6.89,0,1,0,0-13.78H348.75v-23h20.67a6.89,6.89,0,1,0,0-13.78H348.75v-2.3A6.89,6.89,0,0,0,341.86,128.59ZM463.56,395H348.75V225H463.56Zm64.29,0H477.34V209a6.89,6.89,0,0,0-13.78,0v2.3H449.78V209A6.89,6.89,0,1,0,436,209v2.3H413V41.33H527.85V395Z"/><path class="cls-1" d="M378.6,381.18a6.89,6.89,0,0,0,6.89-6.89V245.7a6.89,6.89,0,0,0-13.78,0V374.29A6.89,6.89,0,0,0,378.6,381.18Z"/><path class="cls-1" d="M406.15,381.18a6.89,6.89,0,0,0,6.89-6.89V245.7a6.89,6.89,0,1,0-13.78,0V374.29A6.89,6.89,0,0,0,406.15,381.18Z"/><path class="cls-1" d="M433.71,381.18a6.89,6.89,0,0,0,6.89-6.89V245.7a6.89,6.89,0,1,0-13.78,0V374.29A6.89,6.89,0,0,0,433.71,381.18Z"/><path class="cls-1" d="M442.89,87.26a6.89,6.89,0,0,0,6.89-6.89V71.18a6.89,6.89,0,0,0-13.78,0v9.19A6.89,6.89,0,0,0,442.89,87.26Z"/><path class="cls-1" d="M470.45,87.26a6.89,6.89,0,0,0,6.89-6.89V71.18a6.89,6.89,0,0,0-13.78,0v9.19A6.89,6.89,0,0,0,470.45,87.26Z"/><path class="cls-1" d="M498,87.26a6.89,6.89,0,0,0,6.89-6.89V71.18a6.89,6.89,0,1,0-13.78,0v9.19A6.89,6.89,0,0,0,498,87.26Z"/><path class="cls-1" d="M442.89,133.18a6.89,6.89,0,0,0,6.89-6.89v-9.19a6.89,6.89,0,0,0-13.78,0v9.19A6.89,6.89,0,0,0,442.89,133.18Z"/><path class="cls-1" d="M470.45,133.18a6.89,6.89,0,0,0,6.89-6.89v-9.19a6.89,6.89,0,0,0-13.78,0v9.19A6.89,6.89,0,0,0,470.45,133.18Z"/><path class="cls-1" d="M498,133.18a6.89,6.89,0,0,0,6.89-6.89v-9.19a6.89,6.89,0,1,0-13.78,0v9.19A6.89,6.89,0,0,0,498,133.18Z"/><path class="cls-1" d="M442.89,179.11a6.89,6.89,0,0,0,6.89-6.89V163A6.89,6.89,0,0,0,436,163v9.19A6.89,6.89,0,0,0,442.89,179.11Z"/><path class="cls-1" d="M470.45,179.11a6.89,6.89,0,0,0,6.89-6.89V163a6.89,6.89,0,0,0-13.78,0v9.19A6.89,6.89,0,0,0,470.45,179.11Z"/><path class="cls-1" d="M498,179.11a6.89,6.89,0,0,0,6.89-6.89V163a6.89,6.89,0,1,0-13.78,0v9.19A6.89,6.89,0,0,0,498,179.11Z"/><path class="cls-1" d="M250,197.48a6.89,6.89,0,0,0,6.89-6.89V181.4a6.89,6.89,0,1,0-13.78,0v9.19A6.89,6.89,0,0,0,250,197.48Z"/><path class="cls-1" d="M277.56,197.48a6.89,6.89,0,0,0,6.89-6.89V181.4a6.89,6.89,0,1,0-13.78,0v9.19A6.89,6.89,0,0,0,277.56,197.48Z"/><path class="cls-1" d="M305.12,197.48a6.89,6.89,0,0,0,6.89-6.89V181.4a6.89,6.89,0,1,0-13.78,0v9.19A6.89,6.89,0,0,0,305.12,197.48Z"/><path class="cls-1" d="M250,243.4a6.89,6.89,0,0,0,6.89-6.89v-9.19a6.89,6.89,0,0,0-13.78,0v9.19A6.89,6.89,0,0,0,250,243.4Z"/><path class="cls-1" d="M277.56,243.4a6.89,6.89,0,0,0,6.89-6.89v-9.19a6.89,6.89,0,0,0-13.78,0v9.19A6.89,6.89,0,0,0,277.56,243.4Z"/><path class="cls-1" d="M305.12,243.4a6.89,6.89,0,0,0,6.89-6.89v-9.19a6.89,6.89,0,0,0-13.78,0v9.19A6.89,6.89,0,0,0,305.12,243.4Z"/><path class="cls-1" d="M250,289.32a6.89,6.89,0,0,0,6.89-6.89v-9.19a6.89,6.89,0,0,0-13.78,0v9.19A6.89,6.89,0,0,0,250,289.32Z"/><path class="cls-1" d="M277.56,289.32a6.89,6.89,0,0,0,6.89-6.89v-9.19a6.89,6.89,0,0,0-13.78,0v9.19A6.89,6.89,0,0,0,277.56,289.32Z"/><path class="cls-1" d="M305.12,289.32a6.89,6.89,0,0,0,6.89-6.89v-9.19a6.89,6.89,0,0,0-13.78,0v9.19A6.89,6.89,0,0,0,305.12,289.32Z"/><path class="cls-1" d="M250,335.25a6.89,6.89,0,0,0,6.89-6.89v-9.19a6.89,6.89,0,1,0-13.78,0v9.19A6.89,6.89,0,0,0,250,335.25Z"/><path class="cls-1" d="M277.56,335.25a6.89,6.89,0,0,0,6.89-6.89v-9.19a6.89,6.89,0,1,0-13.78,0v9.19A6.89,6.89,0,0,0,277.56,335.25Z"/><path class="cls-1" d="M305.12,335.25a6.89,6.89,0,0,0,6.89-6.89v-9.19a6.89,6.89,0,1,0-13.78,0v9.19A6.89,6.89,0,0,0,305.12,335.25Z"/><path class="cls-1" d="M498,225a6.89,6.89,0,0,0,6.89-6.89V209a6.89,6.89,0,1,0-13.78,0v9.19A6.89,6.89,0,0,0,498,225Z"/><path class="cls-1" d="M498,271a6.89,6.89,0,0,0,6.89-6.89v-9.19a6.89,6.89,0,1,0-13.78,0v9.19A6.89,6.89,0,0,0,498,271Z"/><path class="cls-1" d="M498,316.88a6.89,6.89,0,0,0,6.89-6.89v-9.19a6.89,6.89,0,1,0-13.78,0V310A6.89,6.89,0,0,0,498,316.88Z"/><path class="cls-1" d="M498,362.8a6.89,6.89,0,0,0,6.89-6.89v-9.19a6.89,6.89,0,0,0-13.78,0v9.19A6.89,6.89,0,0,0,498,362.8Z"/><path class="cls-1" d="M376.3,107.92a6.89,6.89,0,0,0-6.89-6.89H314.3a6.89,6.89,0,1,0,0,13.78h55.11A6.89,6.89,0,0,0,376.3,107.92Z"/><path class="cls-2" d="M191.63,328.4a3.77,3.77,0,0,1-4-4v-12a4,4,0,1,1,8,0v12a3.77,3.77,0,0,1-4,4"/><path class="cls-2" d="M191.63,352.35a16,16,0,0,1-16-16,4,4,0,0,1,8,0,8,8,0,1,0,8-8,4,4,0,0,1,0-8,16,16,0,1,1,0,31.94"/><path class="cls-1" d="M199.61,312.43h-16v-4.79a26.88,26.88,0,0,1,8-19.16,26.89,26.89,0,0,1,8,19.16v4.79Z"/><path class="cls-1" d="M191.63,292.47a3.77,3.77,0,0,1-4-4V240.57a4,4,0,1,1,8,0v47.91a3.77,3.77,0,0,1-4,4"/><path class="cls-2" d="M55.89,388.28H87.83V201.44l-12-36.73H68.27L55.89,201.44V388.28Zm35.93,8H51.9a3.77,3.77,0,0,1-4-4V200.64a1.47,1.47,0,0,1,.4-1.2l13.17-39.92a3.83,3.83,0,0,1,3.59-2.79H78.25a3.83,3.83,0,0,1,3.59,2.79L95,199.45c0,.4.4.8.4,1.2V392.27c.4,2.4-1.2,4-3.59,4Z"/><path class="cls-2" d="M39.92,236.57h8V204.64h-8Zm12,8h-16a3.77,3.77,0,0,1-4-4V200.64a3.77,3.77,0,0,1,4-4h16a3.77,3.77,0,0,1,4,4v39.92a3.77,3.77,0,0,1-4,4Z"/><path class="cls-1" d="M20,208.63v24H16a16,16,0,0,1-16-16v-8Z"/><path class="cls-2" d="M51.9,396.27a3.62,3.62,0,0,1-2.79-1.2c-1.6-1.6-1.2-4,.4-5.59l36.33-32.74L49.5,327.6a4,4,0,0,1,0-6.39l35.93-28.74L49.5,263.72a4,4,0,0,1,0-6.39l39.92-31.94c1.6-1.2,4.39-1.2,5.59.8,1.2,1.6,1.2,4.39-.8,5.59L58.29,260.53l35.53,28.74a4.93,4.93,0,0,1,1.6,3.19,3.63,3.63,0,0,1-1.6,3.19L58.29,324.4l35.53,28.74a4.93,4.93,0,0,1,1.6,3.19,4.53,4.53,0,0,1-1.2,3.19L54.69,395.47a7.41,7.41,0,0,1-2.79.8"/><path class="cls-2" d="M91.82,396.27a4.31,4.31,0,0,1-2.79-1.2L49.11,359.14a3.93,3.93,0,0,1,.4-6L85.43,324.4,49.5,295.66a4,4,0,0,1,0-6.39l35.93-28.74L49.5,231.78a4,4,0,0,1,4.79-6.39l39.52,31.94a4.93,4.93,0,0,1,1.6,3.19,3.63,3.63,0,0,1-1.6,3.19L58.29,292.47l35.53,28.74a4.93,4.93,0,0,1,1.6,3.19,3.63,3.63,0,0,1-1.6,3.19L58.29,356.34l36.33,32.74a4.28,4.28,0,0,1,.4,5.59,3.63,3.63,0,0,1-3.19,1.6"/><path class="cls-2" d="M51.9,232.58a3.63,3.63,0,0,1-3.19-1.6,4.22,4.22,0,0,1,.8-5.59l39.92-27.95a4,4,0,1,1,4.79,6.39L54.29,231.78a5.68,5.68,0,0,1-2.4.8"/><path class="cls-2" d="M91.82,232.58a5.67,5.67,0,0,1-2.4-.8L49.5,203.84c-2-1.2-2.4-3.59-.8-5.59,1.2-2,3.59-2.4,5.59-.8l39.92,27.95c2,1.2,2.4,3.59.8,5.59a3.63,3.63,0,0,1-3.19,1.6"/><path class="cls-2" d="M95.81,236.57H221.17l-16-31.94H95.81Zm131.75,8H91.82a3.77,3.77,0,0,1-4-4V200.64a3.77,3.77,0,0,1,4-4H207.6a3.84,3.84,0,0,1,3.59,2.4l20,39.92c.8,1.2.4,2.79,0,4a6,6,0,0,1-3.59,1.6Z"/><path class="cls-1" d="M20,248.55h20V192.66H20Z"/><path class="cls-2" d="M191.63,244.56a3.63,3.63,0,0,1-3.19-1.6L159.69,207,130.95,243a4.15,4.15,0,0,1-6.39,0L92.62,203c-1.2-1.6-1.2-4.39.8-5.59,1.6-1.2,4.39-1.2,5.59.8l28.74,35.93,28.74-35.93a4.15,4.15,0,0,1,6.39,0l31.94,39.92c1.2,1.6,1.2,4.39-.8,5.59a4.28,4.28,0,0,1-2.4.8"/><path class="cls-2" d="M95.81,244.56a5.67,5.67,0,0,1-2.4-.8,4.29,4.29,0,0,1-.8-5.59l31.94-39.92a4.15,4.15,0,0,1,6.39,0l28.74,35.93,28.74-35.93a4,4,0,1,1,6.39,4.79L162.88,243a4.15,4.15,0,0,1-6.39,0L127.75,207,99,243a3.63,3.63,0,0,1-3.19,1.6"/><path class="cls-2" d="M191.63,244.56a4.28,4.28,0,0,1-2.4-.8c-1.6-1.6-2-4-.4-5.59l22.36-26.75c1.6-1.6,4-2,5.59-.4s2,4,.4,5.59l-22.36,26.75a4.53,4.53,0,0,1-3.19,1.2"/><rect class="cls-1" x="30" y="394.73" width="192" height="14" rx="7" ry="7"/></g></g></svg>